<mxfile host="app.diagrams.net" modified="2024-04-16T14:10:51.792Z" agent="Mozilla/5.0 (Windows NT 10.0; Win64; x64; rv:124.0) Gecko/20100101 Firefox/124.0" etag="s5yfBNBOYH7DArsQBglR" version="24.0.5" type="device">
  <diagram name="Page-1" id="qQOB8iTsETLIdRJqgjTz">
    <mxGraphModel dx="1222" dy="637" grid="1" gridSize="10" guides="1" tooltips="1" connect="1" arrows="1" fold="1" page="1" pageScale="1" pageWidth="850" pageHeight="1100" math="0" shadow="0">
      <root>
        <mxCell id="0" />
        <mxCell id="1" parent="0" />
        <mxCell id="zuQFFj3czzxh_SttVWpp-21" value="" style="group" vertex="1" connectable="0" parent="1">
          <mxGeometry x="40" y="120" width="120" height="320" as="geometry" />
        </mxCell>
        <mxCell id="zuQFFj3czzxh_SttVWpp-2" value="" style="rounded=0;whiteSpace=wrap;html=1;fillColor=#d5e8d4;strokeColor=#82b366;" vertex="1" parent="zuQFFj3czzxh_SttVWpp-21">
          <mxGeometry width="120" height="320" as="geometry" />
        </mxCell>
        <mxCell id="zuQFFj3czzxh_SttVWpp-8" style="edgeStyle=orthogonalEdgeStyle;rounded=0;orthogonalLoop=1;jettySize=auto;html=1;strokeColor=#0e8c00;" edge="1" parent="zuQFFj3czzxh_SttVWpp-21" source="zuQFFj3czzxh_SttVWpp-3" target="zuQFFj3czzxh_SttVWpp-7">
          <mxGeometry relative="1" as="geometry" />
        </mxCell>
        <mxCell id="zuQFFj3czzxh_SttVWpp-3" value="" style="shape=image;verticalLabelPosition=bottom;labelBackgroundColor=default;verticalAlign=top;aspect=fixed;imageAspect=0;image=data:image/jpeg,/9j/4AAQSkZJRgABAQEAYABgAAD/2wBDAAMCAgMCAgMDAwMEAwMEBQgFBQQEBQoHBwYIDAoMDAsKCwsNDhIQDQ4RDgsLEBYQERMUFRUVDA8XGBYUGBIUFRT/2wBDAQMEBAUEBQkFBQkUDQsNFBQUFBQUFBQUFBQUFBQUFBQUFBQUFBQUFBQUFBQUFBQUFBQUFBQUFBQUFBQUFBQUFBT/wAARCAGQAaQDASIAAhEBAxEB/8QAHwAAAQUBAQEBAQEAAAAAAAAAAAECAwQFBgcICQoL/8QAtRAAAgEDAwIEAwUFBAQAAAF9AQIDAAQRBRIhMUEGE1FhByJxFDKBkaEII0KxwRVS0fAkM2JyggkKFhcYGRolJicoKSo0NTY3ODk6Q0RFRkdISUpTVFVWV1hZWmNkZWZnaGlqc3R1dnd4eXqDhIWGh4iJipKTlJWWl5iZmqKjpKWmp6ipqrKztLW2t7i5usLDxMXGx8jJytLT1NXW19jZ2uHi4+Tl5ufo6erx8vP09fb3+Pn6/8QAHwEAAwEBAQEBAQEBAQAAAAAAAAECAwQFBgcICQoL/8QAtREAAgECBAQDBAcFBAQAAQJ3AAECAxEEBSExBhJBUQdhcRMiMoEIFEKRobHBCSMzUvAVYnLRChYkNOEl8RcYGRomJygpKjU2Nzg5OkNERUZHSElKU1RVVldYWVpjZGVmZ2hpanN0dXZ3eHl6goOEhYaHiImKkpOUlZaXmJmaoqOkpaanqKmqsrO0tba3uLm6wsPExcbHyMnK0tPU1dbX2Nna4uPk5ebn6Onq8vP09fb3+Pn6/9oADAMBAAIRAxEAPwDQooor8kP58CiiigAooooAKKKKACiiigAooooAKKKKACiiigAooooAKKKKACiiigAooooAKKKKACiiigAooooAKKKKACiiigAooooAKKKKACiiigAooooAKKKKACiiigAooooAKKKKACiiigAooooAKKKKACiiigAooooAKKKKACiiigAooooAKKKKACiiigAooooAKKKKACiiigAooooAKKKKACiiigAooooAKKKKACiiigAooooAKKKKACiiigAooooAKKKKACiiigAooooAKKKKACiiigAooooAKKKKACiiigAooooAKKKKACiiigAooooAKKKKACiiigAooooAKKKKACiiigAooooAKKKKaVx9LhRRRS07iCiiijyAKKKKACiiigAooooAKKKKACiiigAooooAKKKKACiiigAooooAKKKKACiiigAooooAKKKKACiiigAooooAKKKKACiiigAooooAKKKKACiiigAooooAKKKKACiiigAooPHWsvxJ4m07wrp5u9RnEa9EjU5dz6AVpGnKpJQitWa06c6s1CmrtmnzwAMn25qO6u4LGMvczxW6gZzLIq/zNeDeKPjNrOuM8WnH+yLI5UbP9Yw9S3auCupnupPMuZnuJD1aWQsT+dfR0MjnUjerLlZ9nheF6tRc1efK+x9TDxZoZ/5jFl/3+FXrO/tdQXda3UFyPSKQMa+RgIF6rGB6kCpreRrVg9tK8RBzmJyP5H+ldTyGL0jU/A76nC1Nq0KrufXRyGIIxjr60V8++F/jBrmhtHFdyDVrNTgpNxIPo3/1q9p8M+LNN8X2f2nT5gxXiSFuHjPoRXgYvL6+F+PVdz5PH5RicCuaorx7mzRR6+1FeaeIFFFFABRRRQAUUUUAFFFFABRRRQAUUUUAFFFFABRRRQAUUUUAFFFFABRRRQAUUUUAFFFFABRRRQAUUUUAFFFFABRRRQAUUUUAFFFFABRRRQMKKKKLruIKKKPvcCi/YPIyPFXiW18KaHPqF1hyo2xRE8yv/d+lfNniDxDfeKNUfUNQlLTMcKvaNeyqO1dF8WPFR8SeKHhjYmwssxRKDkM3QtT/AIW+Ah4u1I3d2P8AiV2jDev/AD0fOQv0r7fA4enl+G+sVVrLU/T8swtHKcG8ViFdtX+XZEPgn4Y6n4wVbhm/s/Tc83Dr8z+oUZr1vRfhP4b0eNSbL7dOOsty2c/hXXxokMaRoipGi7URRgKB2A7UtfP4rM6+JlbmtHsfIY7PMVjZ8sJcsOxnDw7pKxeWNLswmOghFYerfCvwzrMbZ09bOY9JbY7T+Xeutorgjia1N3U2eXDGYik+aE2vmfPXjb4U6h4V3XUDf2lpf/PVR80f+8K5XR9avfD+oRahYTtFdRn+E4Dj0YdxX1eQGVlI3K42sGGQR3BHpXgXxa8Bp4Yvl1Cxj/4ltzyV/wCecncfSvrMuzL61bDV7a/1qff5RnP17/ZsVbmfXuvQ9i8G+Krfxlosd9b/ACyr8k8R6o/fI9D2rbr5u+Gvip/C/iqAlv8AQ7thbzqeB/st+Br6R6ZPb/61eDmWE+qV7LZnyecZb/Z+IcF8MtV/kFFFFeTddzwQoooo07gFFFFHWwdbBRRRQIKKKKACiiigAooooAKKKKACiiigAooooAKKKKACiiigAooooAKKKKACiiigAooooAKKKKACiiigAooopjGzSR28byyyJFEv3pJDhR+NUh4g0r/oJ2f/AH/X/GsT4of8iDq4xwVX+deIeCfhvqPxAa5TTFtUNqqmT7Q+3r0xXs4PAQxGHnXqzskfTZblFLGYadetU5Uj6K/4SDSj01OzP/bdf8aZN4m0eCMu+q2aqP8ApsM15In7NviUrlpNNX280n+lO/4Zr8S97jTfwc/4V0/U8B/0EI7v7Hy3/oK/I9Vt/F2h3RKw6vZsw/6aYqp4h8Xadp/h7UbmHUbWWZIGMaRygsWIIFebN+zX4kYf6/Ts9j5hzUb/ALOPimPOxtOc+0uM/pVRwmBjJS+sLQ1hleWxmpfWdvQ8waR2UueCxJ+pP/16+oPAegroPhSwto/myglkZCDuc15DcfAfxnD92whn/wCuc4NZ8/gPxz4fIk/s7VItv8UEjPz9ATXr432GOpxpwrJJeZ9BmdKjmdKNKjWUUvM+i2ypx39O9H86+cLX4jeLPDcnlz3c3B5hvoj+XOK7HQfj4GKpq+m4U9ZrQ5x+GP618/UyjEwV4NTXkfHVuH8XTjzUrTXkevUVh6f440LUtPa9h1S3WBRlvMbDL9RXHa58c9Msy6aXZy6jIMgyMfLj/PByK4KeCxFWXLGOp5NHLcXiJ8kKbv56fmenAc9CfpWR4u0MeIvDGo2UqAloy6MRjDAZB5rxDUvjF4m1RilvPHaA/dS1jLMPbNZ6w+MfEByf7UuQ3OWLKK9illNanNVJzSaPoaHD1alNValRRaOYZWVWGSki5GT/AHgcV9N+FPElpfeFdLvLq9t4neEA+ZKoORwe9eHx/DHxNcM3/EvMWTnMki5q0nwb8QXAO9bRP+ukv/1q9rHU6GMilOok0fT5pQwmZU4QqVknHqe8f8JBpX/QTtP+/wAv+NJ/wkOlf9BOz/7/AC/414V/wpPW/wDpxH/bQ/4VKvwQ1UqP9IsQfTca8f8As3C/8/vwPnP7CwH/AEEP7ke4/wDCQaT31SzH/bZf8aP+Eg0r/oJ2f/f5f8a8Kb4Ja0pIBsWHrvrB8UeBbzwgbYXy27/aAdnktu6etXDKcPUkoxq3b8jWnw9gqkuSFdt+h9PQXEd1CssEizQtyskZyp/GpK5L4UqP+Fe6MAAB5Z/9Crra+brQVKpOmujPi8TRVCtOknomFFFFYnMFFFFABRRRQAUUUUAFFFFABRRRQAUUUUAFFFFABRRRQAUUUUAFFFFABRRRQAUUUUAFFFFABRRRQAUUUUxnLfFD/kQdX/3R/wChVzH7Mg/0jXv9yMc/j/hXTfFJv+KD1b/dX/0KuZ/Zk/4+Ne/3Y/6172HTeWVfU+2y/wD5E9V+Z7vtHYUYHp/OjNKflr5uyPB07DcUu3HQ0o+Y7VUlvSq95qVpp/8Ax93dva+nmzKv9acYuXwx/AcYuW0b/Im2D/Ip4ZlwQzA+xIFZcfijRZW2rrFizf3VnUmtKNlmjEkTLKp6GNg38jVclSO6t8inTnBX5WvkRXtlbalCYru2huo24KzRKw/UVwHiP4E+F9eLyW8UmkXZ6SWpJX/vnpXom7v2pN3OQMVrTxNfDvmhO3obUcVXoSvCdj5g134DeIdF1COKMW13aSNhb1W2KPdlJ610Wh/B3S7NVfUJn1KZeqj5YwfpnmvZPFAAsYs8/vO9c3u6d8V78cyxGIpe89T3P7WxNeHK3bzKdjo9jpaBbSzhtwO6RjP51cLO3VmI9CTijd7ZokkWJN7lUX+87BR+tcvNObtdnA5VKjtdsbtP+RRt/CqkmvabE2JNQtUb0aZamg1C1ujiC5hm/wByRT/Wj2b/AJfzH7Kot4/gTY9v0pNvrzTmYrwVOf0pKzt3MuWy1sHPY4/CvLfjgoX+xiBjh/516lXl3xy/5g30f+denlqviYnq5V/vcUd78Kv+Se6N/wBcz/6FXWVyPwqb/i3ujf8AXM/+hV11eFiv94qep8fj/wDeqnqwooorlPPCiiigAooooAKKKKACiiigAooooAKKKKACiiigAooooAKKKKACiiigAooooAKKKKACiiigAooooAKKKKY0cp8Ul/4oHVv91T/48K5r9mP/AI+Ne/3Y/wCtdP8AFL/kQdV/3F/9CFcv+zJ/x8a9gc7I/wCtfQYfTLKvqfa5f/yJ63qe7/xVzXjf4haR4BsxLqDtNdyDMNlFjzHPof7o9zUHxJ8fQfD/AEE3TAS385KWtuf4mx94+wNeRfBX4J+L/wBqL4gXEVpOyQI6nU9clUtHbqT9xc8MxGcLx71z5Zln1t+0qaRNsryn65+8q6RMfxD8ZPFfja+Fhp3m2izHbDpuloZJZM8D7oyT+Vdb4V/Yt+MvxAjW9HhaW1hlGVm1i68tj/wE5Ir9Nfgj+zL4I+BOkJbaDpkcuolR9o1S6QPcSt3O7+Eewr1gxjqe3tX3lKjRox5YRPvqWGo0Y8kIH5M3n/BOT4w2cPmJp+i3LYz5cF7hx/47XmPin4U/FT4HyC51XQ9a0KJeTdW+6aD/AL6Gf5V+2TYH3ufT/wCtUN1ZwX0MkFxDHcwSDY8MihkIx3BrSUIy3SNZQjJWcUfjr4H/AGjHDRweJ41nt3wF1G3Ayo9WXv74PFe52d3BqFrFc2s8dzbTLujlibcrD2NemftPf8E/dI8YWt54m+HMUeh+IUUyy6Sq4tb3HOFH/LN/THBJ5r4Y+HPj7Ufhb4gm0jVIJYrBZzDfWMwIa2kBwWUHpg/mK+XzDJ4zj7TD6Pt0PlsyyWFSPtMPo+3Q+ifFRBsYj/00rlpp47WCSaeRYIYxl5HOAtdL4muIJNJhuI5Ua2b98swPy7MZ3V81+NPF15461q30vS4ZprZ7gW9raQAmS6kJwOO5rycuwksTdNaLc8DLsHPGNwey3NzxR8Y9vmQ6IiJEpIN9N3+g7fjVTwl8K/ib8apml0LQdW1uNjxcSqYrf/vpsCvtr9l3/gn3pfh2zsvE3xLhj1jXZNskWjkZtrPuNwz87fXivta0sbbTLVLa1hjtreMbUiiQKigdgBxX29LDU6MeWCP0DD4Shh4csIn5Q6f/AME5/jHeQ+ZJp+j2bEZ8ua9BY+3ArnPFf7FPxk8Dxtcv4Ve+hjXcZNJuBKRj2wDX7CqwUZ+X3PFOPQcdv89K6LHU4p9D8NdL+IHiLwjqElhfrcO8P+tsNRRklTnnqOPrzXq/hXxpp3i6Am1cxXMYzJayEbx7jHUe9fpF8av2b/BHx00eW18Q6VH9uCkW+qW6hLiBuxVh1GexzX5Y/Hr4A+Kv2ZfG8FtdTPc6dK5fS9aiTbHKo/gbH3W9QSc15uKwFOurrRnkYzLKWIV46SPSgODmvLvjl/zBvo/8667wP4wj8XaT5hXy7yAbLiP1PZh7GuR+OBDDRj7P/OvDwUZU8Yoy6HzeX05UMeoSR3nwrX/i32jf9c2/9Crra5P4V/8AJPtG/wCubf8AoVdZXzuL/wB4qep8TmH+9VPVhRRRXKeeFFFFABRRRQAUUUUAFFFFABRRRQAUUUUAFFFFABRRRQAUUUUAFFFFABRRRQAUUUUAFFFFABRRRQAUUUUxnLfFL/kQdW/3F/8AQhXMfsx7ftHiDLcBY8n2A5NdP8Uj/wAUDq5/6Zr/AOhV5v8ACjVjofg3x1dRttkWzREP+0wI/rX0WEp+0y+cO7SPucqh7XK6lPvJIo+KrvVPjH8VbXS9KUyXF7dJpunR9QoLY3H6da/Xn4EfBzSfgf8ADvTPDOlIuYU3XNxtG+eY43ux9c1+d3/BOHwbF4g+O02rXCBo9HsWdNwyFkkOAfqBn86/VRV2g/yAr7OlTVGnGnFbaf8ABP0OjTVGnGnFbaDh8uF696fnivnb9pH9rLTv2e/HngrRr+2E9jqzvJqNwOWtLfIVZMf736Cvb/DnizSfFmj22qaPf2+o2FwoeOe3kDqQR6jv7VqbHC/tL+FrzxR8F/Eyadq15oup2do97a3ljIY3WSNS4GfQ4wa/MP4dftqfF74fXUMv/CTP4jtAf3ljrA8xWGeQHGCMjPrX3R+25+01ofw5+G+r+FtOv4bzxZrFu1qltbuHNvG42tI+OnBOB/KvyojURxqgHC9PXpQB+xH7M37WHhz9ozSZEt4zo3iS0UfbNHmfLrkffQ8bkPY4r55/4KQfs8QNYx/FLRbdY7iHbb6zFGvEsZOElIHcHAJ75r4g+Hnj7VPhX440fxZpMrQ3emzq7qhIE0ORvjb2IzX7L602mfGb4J3xVEn07XtHfauc/wCsjOB9Q2PyoA/Hj/hY123wzXwu+9pFmys2f+XcjOw/jxX2D/wTf/Z7gvo7j4pa5biVhI9ro0Mq5CoMb5gD/EWyB6Adea+EJdLuIb6TScbbkXRswvfeXCCv2y8E2en/AAf+B+niTZBY6Jo4llwMABItzZ9+DWVOlCnflVrmNKhTo8zgrX38z0ReoGckcetK/evnb9lv9r7Qfj7oskN49vovieGZlfTZJQpkj3Ha6ZPzZGM/j6V7n4k8WaP4S0m51PWtRt9MsLdS8k9w4RQAMnGevHpWpsfnH+2z4u8d/A34+M/hjxzrNhp+r2q6ilr9qLxQybirAKeNpx0re/Z9/wCCkGp2up2ui/FC3iuLOZliTxBZoUaIkgDzo/T/AGgcV88ftW/GyH48fGC98QWIZNGtoVstP3Dl41PMmPRm5rx9lDqyYDKwxtPfPUfQ0Afvlp+oW2qWcN3aTx3NtMgkjljbcrKehBrjvjR8I9H+NXw81TwvrMYaO4iPkT4G6CYA7JFPYg4P4V8p/wDBND403Wv6Dq/w+1S5e4m0jF1p7yNlvs7HBT/gLA/nX3M3IPagD8NktNU+EHxMvdH1Rdl7p921leKMgSLnAb6YIYV0HxudW/sVk5RldlPqD3r2D/gpZ4Lj0H43abrdtGEj1jTQJWXo0sZK5+uMV4H441BtT8J+E5mOT5ToT9DXn1KSWIhUS3PKr0EsVTqxW5618Kf+Sf6P/wBc2/8AQq6yuT+FP/JP9H/65t/6FXWV+e4r/eJep+Q5h/vVT1YUUUVzHnhRRRQAUUUUAFFFFABRRRQAUUUUAFFFFABRRRQAUUUUAFFFFABRRRQAUUUUAFFFFABRRRQAUUUUAFFFHXigZy3xR48A6t/uAf8Aj1ePeE1P/Cu/GOBj/j3z9Nwr2H4pc+AtWA/uL/6FXm/wn0ltc8H+O7RBulNokkf1UE/0r6vLpqOCbf8AMj9ByOahl8m9uZH0V/wTPKLqnj5lP+kCO2YeuMn+tfo1peoC+tQ2fnXAYd6/Kj/gnx42i8N/GubR7l/Kj12wMKEnAMqElR9SK/Sy3uJbOYSxNtOcHPQgda+yep+gLU/N7/gpLLLJ+0lEspwkWjwCIZPALNn9TXzVpOvatoMcselazqGlxSE74rO6eJGyOcgGvuH/AIKV/D2bWF8PfEO0t/3dqp03Udq5KAndG5P93tmvhH+fT/61Kwwk3TTNLK7zTMdzSzMXdj6ljzn8aBxRmikA2TDK+eSRjrX62/sg6lNefs2+AopmJH2cglupVWwK/J/RdBvfFmuWGhabA9xqOpTraQwoPm3MQM/QA5PpX6828dl8CvgnIssoS18NaI26TIAMixnp7l6APyy1c26/H2RiR9mHipcem37SK/T39qbUp7P9mv4hRWrMB/ZrYKnnaQAR+VfkfcalcS6hJqhP+mNc/bQfRw+8Z/Kv190eaw+OfwNgUOrWniTRPJLN1WRoyuT9GFMD8fIcw+VNG7xTx4KyxsVkU+xHTvV7V9c1XxAqLqmr6hqSIAEW7uWkVcdMAnFS+IvDV/4N8QajoWqQvBf6bO9vLGwIOQSM/QjBrO4osAf5/wA+1HB4ozScNgDqeg7n6UgPpj/gnfPPD+0paLEW8uXTphJt7gEdfxxX6salqKafbl25c8Kue9fnl/wTW+Hs1td+IfiJdwMtsQNN04sMCQjmRwfTJA6djX3BdXT3tw0kjc9s9BTA+H/+CmDq6fD9nIaYm5Y+uOK+P9Y/5Enwxnpun/nX0D/wUU8bJr3xg03Qbdw8ehacqyqp486QliPwGK8S8dWB03wr4ThYbW8qRyv+8c1y1WvaU49TjrSXtKa8z1n4U/8AJP8AR/8Arm3/AKFXWVyXwp/5J/ox/wCmbf8AoVdbX5tiv94n6n4xmH+9VPVhRRRXMeeFFFFABRRRQAUUUUAFFFFABRRRQAUUUUAFFFFABRRRQAUUUUAFFFFABRRRQAUUUUAFFFFABRRRQAUdOaKKYzlfik3/ABQerf7qj/x4VzP7MmPtOvhhlCseQfQgjFdL8Uv+RD1b6L/6EK5r9mX/AI+Ne/3Y/wCte/h7/wBmVWu59rl+mT1mu5xvjTTdR+EvxPh1HTHMEtrdLqOnyrwDhgdv6Yx71+p3wa+LWmfG3wBYeJtNcK0w8q9tiRut7gAbkYdjxmvi74j+A4PiFoLWjkRX8OXtZmHAbH3T7Hp7V4x8I/i/4r/Zq8eXE9rCzxswTU9IlJVLqMHqCeA3owBr6LK8dHFUowk/eifY5Tj44ulGDfvR/E/V/wAQaFp3irRdQ0fVrOO/0y+haC4t5uQyEYI9j3B7V+cXx7/Yl8V/DG/udT8LW9x4p8KMWaNrcZu7VeuyRM5IHZh2r7j+Df7QHgv44aYk2ganHFqYUefpN06x3ETdwFP3h7jrXpfz28mPmif3yGr2z3D8P7nNlO8NzFLbSocPHNGyMp9CCK6DwX8PfE3xG1GKx8NaBfatPKcBoYSEX3ZjwBX7J3ui6ZqUnmXml2V5J/z0ntEZvzxVpfK0mxZgkGn2EYJkdQsESgepGOKejA+bf2V/2Qofgo3/AAknieWHU/GcibI44huh05W6qndnPdgK84/4KB/HSBbOH4Y6NcK8sjLc61NC2VjUfchJH8Xr/Kuk/aM/bl0nwlaXXhz4eTx634hZTFNrEZzbWJ6Ex93f0xwDXw/4T8C+L/i94guI9D0q/wDEuqTSmS6uIwSN5PLPIeAfxrKUlBXk7INy/wD8KxvV+Ga+KJI5Fmkn+S32HJtwPvfnzX1B/wAE+/jtBYx3Pwy1q52iWVrvRppjwxb78P58gV5vqH7JPx2tdNiN2kaRtHsWzOojO30xjA4rxbxd4D8VfDHVIP7b0u90O8jlEtrdgEASA5DRuOOD0rgw+Lp1JunKopS6amVKjXipSra9mfob+1R+yVbfHJR4h0O4j0vxnbQiJml4iv0X7qSNxh+wbHPpX54eOPhv4q+GupyWHifQL3SZkYjzJIi0TD1VxwRX21+zf+3RpXiC2tPDnxHuI9J1lMQwa62fs92MYHmf3H7ZPFfXyvDq2nxybodTsJFysmVuInU9ME5Fep5Gp+IcObqRYoYZriRjgRwxlmb2AHU19EfAj9ivxf8AFW9tr/xHbzeFvCYIaaa4UrcXS5+5EnUAjgk9K/Smz0TTNPm8200qxtph/HDaIrfntq9ue6cHd5r9O5/lRoBmeG/DemeD9AsdE0W0Sy0qxiENvAnAAHc+p9/Wuf8Ai38UdK+DvgPUfFOrOAltERawEjdcXBB2RgdznGazvi/8evBnwU0t7nxFqaNfbcwaTasHuZm7DaD8oJ4yelfmv8a/jj4o/aO8aW9zdwtbWkZ2abo8LZitwTgs2P4yOpIqXJRV3sJtRV5aI5qxfUPip8RrrUdTcy3d7dNe3jsCdo3ZwPboB9K6T44IF/sQJwiq4Uew7V13gfwdD4P0kQZ8y7lw8z9s9lHsK5L44D/kCj0En86+djivrGNVtuh8pHFfWswhyvSO3md58Kf+SfaN/wBcz/OutrkvhTx8P9G/65t/Outr4/FK2In6n5xmH+9VPVhRRRXKeeFFFFABRRRQAUUUUAFFFFABRRRQAUUUUAFFFFABRRRQAUUUUAFFFFABRRRQAUUUUAFFFFABRRRQAUUUUxrc5P4pf8iFq30H/oQrm/2ZP+PjXv8Adj/rXS/FL/kQdWP+yp/8eFc1+zJ/x8a9/ux/1r6HDf8AIrq+p9rl/wDyJ63qe7Vzfjb4eaT48shFqCNDcxriG+jx5sf49x7GulXljSn5utfOU5zoy5qbszx6dSdGXNTdj5e8R/BfxR4QvVvtP8zUEhO6K+05ik8eOex3A/ia6Hwz+1x8YPAcIsovFV3PDFwLbV7fzce2WAJ/OvoBWKNkHB/vDg/nUM+nw6o4jms4LuQ9PMiVh+eK+lo59UhHlqxufU0OIasY8lSNzyS4/b7+L11CUTVNJtT08yCwUPXB6945+Kvx0uhBqOqa94hSQ/6hd0duM98LgfnxX1dpfw/0SzkWafSrFpeoH2dcCunj/cxCOILCg6LEoQD8ABWtTiP+Smer/bN4+7Tsz4HXwaPDvjjTdA8Zl/Dlg1zEl9MqbjDCxGXUjqMZ5B4r9iPhX4T8MeCfBOmaf4Qgt4tG8lXiktcYmyPvsw6k/jXxz8Vvhbp/xU0E20+231W3VvsV4Bymf+WbeqE+vrXE/ss/tLap+zz4rf4eePjJH4ca48pJZST/AGa7HCkesLZzntWdatPN8Pem7Tjuu57uX46OIXLLc++PiEpZrMezdua868WaDpHibw3f6b4iggu9GljYz/aMbUXacvuP3SBzkY6V3/jq6iuobG4hlR7eSNnEyMCm3Gc7vTHevz6/aS/aAvfiprg8AeCGeTSGl8i6uYGKi9kB5UEDiJeuecmvhcPgK2Mxz9m+Xl3ex928ZSwuATqWa7HguqeFbbUvHeo6F4Tkk16x890s5igBljB6k/3R05re8P8Ajj4m/BG4MWl6trPh+NDzDlpYG/4C2Rj8q9y+G/w5tPh3o/lDbPqdwA1zc4xz/cX0UV17YlTZIokXptkAYY/EV9/PPJUZqnTXNGPV7s/HMRxCo4hqnG8Tx+1/b6+L1pCsbatpN2QMb7mwG/8AQisLxL+2B8YPGsDWr+LLi1hfgwaXbiLOe24DP6163qngXS71mlhsrZZu6tCuD+lYC2MemyNFHaR2zL2WMDP0rtWeQqK0Yam39vwcdKZ4dpPw51/xVeNeX5kgM3L3moOzyv64yc59q9X8L+DdP8J25FqpluZD+9upAN7cYxx0FbuC3JJJo7dK83E46riFbZdjx8XmFbEqzdo9hQoAwOleW/HA/wDIGPs/869S+8MdDXjvxuvPO1yytVPMNuSyg/xE9K0y/XEJ9i8rj/tab6K56d8K1K/D7R9wKkRng/71dXWT4Rsjp3hfSLc5ytsu7PYnmtavn8Q+avKXmfE4yXNiaj82FFFFcxxhRRRQAUUUUAFFFFABRRRQAUUUUAFFFFABRRRQAUUUUAFFFFABRRRQAUUUUAFFFFABRRRQAUUUUAFFFFMZyvxSH/FA6sP9hf8A0IVzX7Mn/Hxr3+7H/Wul+KR/4oHVj/sL/wChCua/Zk/4+Ne/3Y/619Dh/wDkV1vU+1y//kT1vU92UfMaU0gPzGhuc9xXy9zwR8MT3EixRKWduB/jXU6dpsenxYUbpD958fpUOh6aLKETOMzyDn2Fafpn9KhyPWw9FRXOw/AUUUVmd2ghXd2yf51558Zvg/Z/FTRcxeVb69aoRZ3TjiRcf6pz3BPHPTNeiUc888f3e1dFGvOjNVYO0lsy6VSdGXNBnxw3xm+I9n4Ef4RSSXGxLpoFRs/bFjJwbfd/cJ5z6V6n8Kvhfb/D3S/NlEc2sToPOuFHyxL2jX+tel+J/D2mNqtvrpsoTrCxm2+2FRv8v0z/AF61nBd3Xr29q9bFZgq0OWlHlvrLzY80zapioqgtEt/P/gAOw6AdqdikAxS15K0R8uIVyfWqep6VFqUOGG2Yfdfv9Ku0HnrTTcXdDV11ODuIXtZmikG1l/Wmjmuq13SxfQGVF/fRjj3Fcl9446duTivVpVPaRuzuhLnjoIzrtZmO1FXexPYDrXhcYfx98SowrboprrcO+Ik6/wAq7v4qeLl0rSzpVu+L68XMm3gxxdMn0zR8DfCps9Pl124TbLdDZbKw5WMHlvxr3KD+qYeWIlu9j3qcll+BqYuekpaI9T4X5VGFXgD27CikxxS18n3Z+dbtyfUKKKKQBRRRQAUUUUAFFFFABRRRQAUUUUAFFFFABRRRQAUUUUAFFFFABRRRQAUUUUAFFFFABRRRQAUUUUAFFFFMa3OV+KX/ACIWrD/YUf8Ajwrmf2ZP+PjXv92P+tdR8UjnwHq/H8K/+hVy/wCzKP8ASdfHfZHn9f8AGvoMO/8AhLq+p9rl2uT1rdz3bPU1oaJZi7vVLD93H8zfXtWf9eldP4etvJsQ38Uhya+WZ5WHhzzszT4HQ0Uu0UYHr+hrI9lK3QSilx9fyNGPr+Rpj17CUUuPr+Rox9fyNAa9jG8Tf8ekP++a59RXQeKPltIMn+M1zwYetaI8bEp8+wtFJuHrRuHrVnKO49aShVd/uqzf7oJqhrGvab4ftzNqd9b2KAZ/fSAH8utVGMpO0VcpRlJ2SuXsH5T0Pqa8u+Knii18ByMwAmv7iPfBbLjIJ7t6CsLxx+0ZFHHJbeGISzEFTqdwuFX/AHF7muI8JfDrVvH162q6vLNDZyNukuLgnzZ/ZR2HvX0WEy/6uvrGLfKu3/APo8LgI4WP1jGvlh26lXwR4TvPiR4hnvr+R3s0kD3cx6SHPEan07V9CxRRwRxxxIscUahVRegA6VBpel2ui2ENlZRCC2iGFQfzPqatVxY7GSxc9NFHY+dzTMp5hUvtBaRQUUUV5p4gUUUUAFFFFABRRRQAUUUUAFFFFABRRRQAUUUUAFFFFABRRRQAUUUUAFFFFABRRRQAUUUUAFFFFABRRRQAUUUUAcz8SoZLjwNqscMTTSsq4jQZJ59K8M8P33izwr5jaRHqNi0ygSeXAcNj8K+mtxznp6+9L5jf3jXr4XMFhqbpcl0z6LL84+oUXQdPmTPnw+PviMcj7Zqn/gP/APWq9H8WPinDGqJqWqBV4A+yD/CvdfMf+8aPNf8AvtXQ80pf8+F+H+R6C4hgndYdfh/keGf8Le+Kn/QT1T/wEH+FH/C3vip/0FNU/wDAT/61e6ec/wDfb86TzH/vGp/tGj/z4X4f5D/1ij/0Dx/r5Hhv/C3vip/0FdU/8Bf/AK1H/C3vip/0FdU/8Bf/AK1e5eY/940eY/8AeNH9o0f+fC/D/IP9Yo/9A8f6+R4b/wALe+Kn/QV1T/wF/wDrUn/C3vip/wBBXVP/AAF/+tXufmP/AHjR5j/3jR/aNH/nwvw/yD/WKP8A0Dx/r5HhE3xT+KFwMS6jqcgzkbrQf4VD/wALK+JP/P3qH/gJ/wDWr33zX/vGk8x/7xqv7Spf8+F+H+RP+sFO93ho/wBfI8E/4WV8Sf8An81D/wABP/rUf8LK+JP/AD96h/4Cf/Wr3zzpP75pfOf++1H9pUv+fC/D/IP7fp/9A0fu/wCAfPD658RdfYxefrEm487FMY/TFTab8GfEutzefqbrZAnJkupDM/5ev419AGRz/Gw+hpv4UPN5x/gQUTOfEVVL/Z6cYnD+F/g/onh6aO4mDareLz5kwxGD7Lmu324xjjaMDjgD0HpRjPXmlrxqtariJ89aV35nzuIxVfFy5q0rvzCiiisTkCiiigAooooAKKKKACiiigAooooAKKKKACiiigAooooAKKKKACiiigdrhRRx60UCv0CiiigAooooAKKKKBhRR9KO2RyP89fSjzFsrhRU0Vjd3FrJdxWdxLZxnD3CQsY1+rYqHqoI5ptNWutypQlC3MrXCiiikSFFFFABRRRQAUUUUAFFFFABRRRQAUUUUAFFFFABRRRQAUUUUAFFFFABRRRQAUUUUAFFLx2NTWen3mpFhZ2dxdFBljDEXCj1yOKaTk7IpJy0SuQUUZ5x+neikJ6bhRSA5paBBRRRQAUUUUAFFFFABRRRQAUjMFzn5f8Ae4peTwDg+te8fs1/BSx8cxyeI9ci87ToZfLtrRh8spHVm5557V04bDTxVTkid2Cwk8bW9lT3PBVkR8lSCAcZHNOr3r9rjR7HRfEPh6GxtIbKL7K/yQoqA/Nx0+leCZ/zmniaEqFV0ZO9gxmFeEryoSd7C0Un4fqKWuU4Qoo/H86OaA6XCij9KPrQCfUQjcCBXd/BTwHB8RviBa6ddDNhCDc3CD+NQRhT7E1wte3fshr/AMXNvB/04Y6f7VduDgp4iEHsz08tpxrYulTltc96+OWk2mi/BTXrWyt47WGO22osQ2gDI9K+FF4UfgK++f2iF/4tD4h5/wCWH9RXwOq/Ip/GvWzpJVoKOh9BxPHlxEIx0Vh1FFGfXj8a+cPjL2Cik3Z6c0tAdUu4UUmfXj60v45+lMe24UUL83TmiiwgooopAFFFJn/OaNgFopCcdxn0pe/+c0LUN3ZBRRRR1sHkFFH60Z/lQAUUmaN3+etAC0UUUxhRRR+Iz70B0uFFHH09+1APfIH40ulxXNnwf4cbxd4s0rRkYoLyYI7L1CfxEe+M1942/gvS/BvgS807TLWO3ijs3BKqAzHYeSe5r4v+A/8AyV7w1zkea44/3a+7vE3/ACLeqkf8+0n/AKCa+uyenH6vObV2j9C4doU/q1WrbX/gH5rt96Rj/eJPr1P+Ndl8PPhL4g+J0k39kxxQ2sDbZLq5YhN3oMDmuO+6z9/mI/Wvqz9kvxtpMPhCfQpbiK11WG5d/LdgrSqxzuGevpXh4GjTxGI5KrsfM5XhaOKxbhXlZHgPxE+Fev8AwzuoI9Xije3nJEV1bnMZI7H0NchX1T+1x4w0mbwzZ6JDLHd6nLOsw8sg+Wq9SxHTNfK1TjqNPD1uSm7ozzbDUsJiXTpO6Ciijp1NcB44UUm4Y64+tLSHZ7hRR9DmijpcQUUUUAFfbH7Kf/JIbFsZPmy/+hmvievtn9k//kkNif8AprJ/6Ea9/Jf95PruGNMZr2Y741fASb4t6tp14mtf2X9liaPYYQ+7Jz6jFec/8MVXP/Q3j/wE/wDsq9g+J3xx0T4U31la6tBdyyXaGRDbxhhgHGCc1xn/AA2R4Q5/0PU8f9cR/wDFV7mIpZfKrJ1173zPqcZQyiVeX1i3N11Z8/fGD4Qv8I77TbaTVf7Ta8RnyYQmzacepzXnrNsBzxivVv2gvixpXxX1LSbvSobiFbKJ1k+1R7T8xyMetdx+zH8E7fWFh8W61B5kCv8A6BbSjOQP+WjevPQYr5r6qsTivZYb4T4qeBji8wdDB/AmtfLqcL8P/wBnHxV48hju5VTQ9PbBWW6QmRh6hOOPqa9asf2MdHEI+2eINQnlxy0IVF/Lmvb/ABZ4z0jwLosmo6vcx2VpGOkhG5vYDufYV4fqn7aOlw3DR2Hhy8vYQfllkkWLcPUAg8V7zweAwaSru7PqXl+U5dpiXef9dEZmv/sZhYXfRfEcokA+WG8jB3H03Z4/KvB/G3w/174eX4tNbsWgDHEVyvzRS/7rf419VeCf2rvDHivUYrG/gm0K5mIVPtRDRkk4ADDvXqnijwvpXjfQ7jTtSt47q0uU2kntkcMD2PvU1MuwmKhzYZ2JqZPgcwg6mCdpfh9x+cP8WPzr2/8AZD/5Kdef9eOf/Hq4D4rfDe5+F3i6TSpmM1nJ+9s58Y3x5xg+4Nd9+yF/yU68/wCvD/2avBwlOVPGwhJapnymX0ZYfMqdOas00fRH7RH/ACSDxF7Qf1FfAyn92v0r75/aIP8AxZ/xJ/1w/qK+BV4jBPCgcn04rvzz+PBHr8U/71D0Nnwj4Zu/Gniaw0SwVjPdPgvjPlqOrn6Cven/AGMbmOIyP4s2gDJzaAf+zV1X7KfwwOgaDJ4mv4cajqIBgVhzHB/CPqetbH7TPxQPgnwidKsZMavqqGKMZ5SPoze3Xit8PgaNLCvEYhXbOjCZVhsPgHi8Ytdz498R6baaPrt7Y2N8dSgt5TELopt3kdcDJ7+9VbGxutVvoLOxt5by7mO2OGFcu56cf/XqK3glupoYLeNp7iZlRIxzvZmwOPUmvuP4F/Bey+Guhpc3KLPrt0oe4uGH3f8AYX0xXk4LBvG1W46RR8/l+WvNK0uXSPXyPFPBv7Iuv61DFca5qSaKjAH7NCu+XH+0cgA13S/sX+H/ACxu13UzJ/fBUfpXpHxI+Nvhv4Yokeo3Jlv5F3x2MAzK34dvxryhv21bVpuPCl2YDn959oUH/vnFfQuhluFfJPc+wlhclwP7qrv56/kc34w/Y+1rS4Xn0HV49WRQSLe6j8t/oGB5P4V4RqemXui381jf2stnew8SW8ylWHv7j3Ffdnw1+OXhn4n5gsbhrXUkGXsbr5ZB/iKi+Mnwb074oaG52rb6zboTa3aj5gcfdJ7g1z4jK6Fan7bCs5sZkWGxFH2+Xuz7dD4Pz+XrQMk4x83f0qa/sbnR76ezu4zDc27mKZGHRhnP8jXXfCL4bS/E7xlDpbM0djCBPeSL/wA8wfuj3PT8c18tClKpNU1vsfCUsPUrVVQiveZW8A/DDxD8Srry9GtP9GU4kvZsrEn49z9K920X9i+2MIbVvEdw82PmW0jCKPxya+hNF0XT/Cmkw2VjBHZWdsmAqgAAAcn/ABrx7xp+1p4e8N6lNYaXZTa7PCxV3hcJEGHbcev5V9dHL8HgoJ4l3Z+gwyfL8upKWOfM/wAPuMfUP2LtIaBhY+Ib+CXHHnKHB+vSvHfiJ+z94p+HsT3bxrq+lx9bqzU7kH+0vp717Fo/7aGk3Fwqat4fu9PiJwZ0kEoX6jAr3Pw94q0jxtpKX+l3UV/ZzjbuQ7h05BHb6Gm8HgMZH9zuX/Z+VZlHlwrs/LQ/N9WDAEEEEZB7Up6dM17p+0t8F4fBd8viPRovL0q5fbcQKPlgkJ4K+gJrwtlLfKEMrN8ojXksx6KPrXy2Iw88NU9iz4DGYOrg6sqNXXsPt4Jbu4jt7eJ7ieVtqRRKWZyewFe4eBf2S9f8QQR3Ot30ehQPhvs8Y3y49+Rg165+z38EbbwTo8esanGs+v3aBy0i/wCoUjhF9OK9C8efEbRPhzpf2zWLxIFPEcS4Mkh9FHc19Fg8rpxh7bFM+yy/IaNOisRjnp2PJof2NfDSQlZNa1J5P76sB+mK43xh+x7qmnQy3Hh7WRqWwZ+y3ibGP0Yd/wAK6C5/bUslvAtt4WvJbXODI0wUn/gOP616V8Ovj94Y+JUgtbS4ay1Qj/jxuvkkP09RXUqeV4h+zg1c7Y4fI8Y/YU7J+rPhvWNGv/D2pS6fqlnLY30Qy0Mq4JHqD3FUxnOMV9/fFP4UaV8UNDe1u0WK+jUm2u0XLRt2+oz1FfB/iDQbzwvrV9pGoL5V5aSNG47HHcHuDXz2OwMsHLmi7xZ8jmuUzy2Sad4soNlU3H0/KvQvhv8ABHxL8TFE9nEun6XnH266UgP/ALi9TWx+zz8I0+JniJ7/AFBd2iafIC69ppMZC/T1r7QurzTvC+kvcTvDY2FtHks2FVFA/SuzL8sVePtaukT0cpySOLgsTiXaC6HgOmfsX6UsK/b/ABDfXE2PmNugRR+pqrrH7GFr5TNpPiW4ilA4S7iDqT+BFaviT9sjQdPumi0jSbvV1UlfP3CKM49Mg5FGgftlaHfXCx6vo95pCHAEwYSoPc8CvTcMrv7PS/zPbdPIZP2Gl/VnmPgv4W698MfjV4Wg1iOLyp5pPJuoWyj4Xp7GvsLxN/yLOq/9esn/AKAa8f8AG/iTTPFfj74ZX+k3kV7ZyXk2JIWyP9WeteweKP8AkWtV/wCvWX/0A124SjClCrGm9P8AgHo5dh6OGp14UPh/4B+azZ3NjrvOK9S+D/wGk+Lmj3eoQ60dJNrOYAqw7j0BzncD3ry1vvN/vmvrP9i1d3gvXDn/AJfz/wCgivksuowxGK5JnweT4ali8b7Kqvdszxz4wfAWX4R6daahNrX9rG7n8ra0IUjjOc5NeXV9Z/tnr/xSuhnr/ph/9BNfJe49hz79KMxpQoV3CKIzrD08Ji5U6KtovMGYL15ycDaM7j6D1r1vwD+zP4p8b28d3dtHoFi+Cj3C7pWB7heMfia779l/4J295axeMtahWUsxOn28g4RO0h9yfbivobxT4w0rwPosup6rcx2dpGB94jLHsoHc+wr08FlcHT9tXfu9j3MtyKnUorEY1+7a9jw+z/Yv0VY1F1r+oTS45aMBF/Lmqmr/ALF1r5LNpfiW6hkxwt1GHU/qKm1b9tLTIbhk03w3eX8AOBPJKsQP0BFbPhX9r7w1rV5HbarY3OhO5CiSYh4uePvDpXcoZXKXIkr/ADPTVPIZv2Stf5nzl8Qfg74m+Grb9UtVnsM8X1rloxzxu44riu4xyD0P9a/SyaHT/EmmFXEV9ZXEeOzI6kfyxXw38dvhafhj4uMdqrHR74GS2bshBy0ZPseleTmGWrDr21N3R4Gb5KsFH2+Hd4djzeiiivAPkgr7a/ZP/wCSQWI/6bS/+hmviWvtn9lA4+EVj/11lP8A4+a9/Jf94+TPruGf99/7dPLf2zfl8VeHR2+zOcdvvV88H5a+hv2zW/4qvw96/ZX/APQjXzy3NcmZf73L1PNzy/1+pa2/6FzRdLfXNd03TELZvLmOA9yFLYP6V+juh6TDoei2lnAojht4ljC47AV+f/wpkSP4neF3lOF+3qOffp+pr9D5FJt39Cte3kcFyTqPc+p4XglRqVFuj4P/AGgvHlx45+It7E0pOm6W5treEH5dwPLkdzXm20dxx+v61p+KY3i8Va0kvEi3s2767ulZtfL4mo6lac5dD4bGVJVsRUlP4mxGRXUqwyp68Y/L0NfYH7Jnj258S+FbvRtQmM13pbqiOxyWhIyufp0/CvkDO2voP9jWGZvE3iGVA3lJbxKT2yST1+lehlNSUMVGK2Z7HD9adPHpR1T6Hon7WnhaPVPh+urhP9J02YOrAc7W4YZ9K8m/ZBH/ABc689PsH/s1fQn7REiR/B/xEJCBuhUD67hXz3+yCcfE27xz/wAS/wDrXtYqKjmVNrqfRZhTjDOaDj1s2fUnxT8I3XjnwNquiWcyW891HsWSQZUdOo/CvAvCH7HFzb6pa3HiPW4Lm0hkVza2kRUSYIOCSen4V9J+KPE1j4P0O61bUn8qytl3vJjOB9K81P7Vnw927jqrnuMQP/hXqYmjhZVVLEPXoe/jqGX1K0ZYprmWq1PSdWvrfwv4fubzyWNvZQF/Jt0ySFHRR+Ffnz8Q/HV58RvFl7rd5uj3HZDC2f3SA4VecYPrxX3n4P8AiJoHxAsnn0PUYr6ONtkip95D1wVPSvGf2oPg/YXGhzeLNLtkt9QtMNdLGMCePOCWHqOtcmaUZ4ihzUpaI8zPcPPFYX2uHleMdWl1/wCGPKf2Y/CsfiL4pQTTIHg02JrnBGRvJwv5V9jeNvEUfhHwjq2ryBT9jt3lVWOAWAOB+Jr5j/Y1lj/4SzX1ON7W8RU55xub/EV7d+0VDJN8H9fCbiVhDNtHOAwJ/Ss8tXssDKpHczyf/Z8qnVh8WrPhnWNYu/EOrXWq30rS3l1I0kkjHJOeg+gHaqv04PrgU1egOOcD/OKdXxTfO+aWp+aTn7SXNUfr5k+n6jc6LqFrqFjK0F5aOJIpF6jBzj3B9K/Qz4Z+LF8beCdK1bC77iJWcA5AbGCPzr86y3bHPpX3B+y7DLF8IdI3AqG3su70LEivo8jm/ayi9j7PherKNeVFfC/wPDf2tPC0eh/EK11GBQkep2+6TA4LqcZ+uMV6r+yL4YXTPh/PrDp/pOo3DPuI/gHCiuR/bSkRZvDaDHnhZm98cf8A169g/Z4QRfCHw7tHH2cH9TXfhqMf7Sm0tErnq4OhBZ3UdtldfM4T9rbx7ceH/DtpoNlKYZdUyJyhwwhGMgH3JxXyKqhVVQAFXouBgV7n+2BO8nxMsIifkjsBgfVyf6CvDa8PNKjniZJ9D5XPa8q2NlFvRaCD5cbSRj0r1j9mvx5ceD/iJa6eZf8AiW6uwiljzhRL2YD1PSvKM7ea3vh/G8nxA8NLFkv/AGjBjAz/ABA5/KuLDTdKtCcep5eBrSw+IjUp73R99fELwzD4s8F6tpkyhxPbui5GcNglT9c4r4u/Z98IL4k+K2m2tzH5kOnk3EgxkZThc/jX3dIP9Fbd2U5/KvlP9mKa3j+MnitVwFZZDF/u+aa+wx9KE8VRb6n6NmtCFXG4VyW71Pq6TKxnYAXA4A4ya+P/AIhfBf4o/EPxZd6xeafakElLaI3YxFEDwoGOM9TX1n4i12y8M6Pc6pqM621nbrvllYZ2j1rgh+0l8PG5/wCEigH/AABuf0rsxtOhW/d1ZWPUzKhhcSo0sRU5ba72Pmf/AIZd+IuP+QXZn1/0of4U6P8AZh+JNtNFPDp9tBcQsHimS8AMbDkEHGetfTa/tHfDplyPEdv/AN8t/hSf8NG/Dvv4ktsf7rf4V5ay/A6ONSz9T5/+yspi0/b6/wCJHU+A/wC2m8Jacdfiji1hYgJ1jbcu8cZB96+Z/wBsjwymma9pGvxJj7TE0Ex6AleVz717h/w0Z8PVGf8AhI7cd+h/PpXif7UfxO8M+PvCunwaFqcOoXEFyZHWPPA210ZhUozwrgpJtHbm1XCVsA6SqJtW6q57f+z/AOFovDHwv0SJE2yzRfaJTj7zPySa8N/a88dXF54jtfCsMm2ztolubpVJ+d2J2g+w/rX0p8N7pbrwHoUkeNrWkeMf7or43/aYjki+Mur71I3pGyZ7rt/xBrDMJOjgIRhpsYZxUdDK6caWidl+B5fg5znH0A/Sl6/X1FFFfGaWPzFp2vY7v4DNt+LnhuJWIQzu3lgnaDs6gdq+7vFH/It6r/17Sf8AoJr4b/Z5sX1D4v6DsUkQ+ZKeOgC4/nX2/wCMLhbbwnrUrnCrZzMT6YQ19llGmGqSl/Wh+l8Oq2Bqvv8A5H5uH77f75r6z/Yt48F65/1/n/0EV8kK3y7vVs/zr63/AGLf+RN132vz/wCgivIyf/fF6M+e4f8A+RivRh+2f/yKmhD/AKfT/wCgmvlXR9NbWta03Tlzm8uYoTj0ZgD+hr6p/bQ/5FXQ/wDr9P8A6DXzT8P5lh+IHhmRyAq6jEC3/AgBV5nZ4+z8i88jzZpb/Cfoho2mxaPpNpZwqscUEKxqq8YwAK+HP2gfH0/jj4gXkRlZtM02Rra2hzlNw+8+PX3r7smUm1lxzlTjH0r81/EEcsPiDVkmyJhdShwf72/NepnVSVOlGENF+h7nE1SUMNTpx0X+RQ29CcZHsP60bRtIABz/AAkcH6ilor412SPzbTZPU+pf2O/GF3fWOreG7qRpYrIrLbF2yVibPy59iK6X9rjRYrz4ZresF861uEKsPc4NebfsY/8AI3a4Cf8AlzjHr/Ea9b/as4+Ed4P+m8X/AKEK+zoN1MqfProz9Nw0nWyN+1d3ZnxEfl4oofr+FFfFn5mKa+1P2T5kb4S2kauGaOaRW9juJxXxXXu/7LXxStvCmqXHh7UpVhs9Ql8y2kc4VZDwVPpmvaymtGjiLyPo+H8RHD4xOe1rGn+2hbyR+IPDt0yFYDA8fmYO3du6Z9ea+cy64PzL+dfpTrXh3SvFViLfVLK31C2bnZKoYfUVzH/Ci/APX/hGNPx/1yFexi8pq4iq60J2ufTZhw/VxeJeIpzSTPgKx1B9Nv7W/tzultJlnUIcnKsD/Sv0a8F+J7bxh4Y0/VbWQPFcQq2VPfjI/CvlH9qbwjovg3WtBi0bTrfT0mjkaQQrjdzxWb8A/je3wzvjpWplpNAuZM+ZnP2Vz3H+ye/pXDgaqy7EvD1ndM8zK8Q8pxc8JXleL6mn+018Kb3w34nn8TWUDSaPfMGuDGM+RLjktjseua8ORtyhhyD028/yr9J7G/0zxPpKS2s0N7Y3CcHIZWU9v/11w2sfs3+ANauWuJNDjhmY7n+zs0YJ9cA12YrKHWm6tCVrnbmHD31qo6+Fkte58JQxyXdzFb28bT3MzBYoohuZiemBX3F+zr8L5/hv4Pb7eqrqeoP58yj+Dj5Uz3wP510/hH4ReE/AjiTSdHgtrjtMw3OPoTyKrfE74uaJ8MdJlnvZ1lvnU+RZxkb5Wxx9B6munB4COAftq0rs7MtymnlP+1Yqav06WPMP2vPG0Vn4YsvDcUgN1eOJpAp6Rqep+prz39kHj4n33bFj/wCzV5T4w8Wah448RXWtak2+6uGykf8ACidlHt/Wu5/Zu8WW3hP4nWz3bhIL6M2vmE4AbPGfqeK8T64sRj41OiZ819fWMzaOIk/dT09D6j/aGyvwf8R5wf3H/s1fBCsdqgE9B3Nfen7QciSfB3xEQ6/8e+f1r4KX5VVs9s1rn1vbQudPFPLLEwv1R6t+zHqE+n/FyxSN323cDxyqDw23kEivsD4nQRyfDnxIrqHU2M3B/wBw18N/CHxNb+D/AIlaJqd2QLZZDFJI3RQ3Ab6c19w+P7qK6+G/iCSJ1kjk06Zgynggoe9ehlNTmws4X7nq5BUjPAVKTe1/yPjH9nrxengv4kaXLO4jtL4fY5GPZiRtJ/GvujWNLt/EWh3thcAPbXkLROBzwwxX5pRjci4JXvuBwVI7g19Xfs//ALREGoWdr4b8ST/Z9SjASC8lOEnHQDPY/wA65coxkIqWHqPQ4eH8wpwUsHWej2Pnn4heANS+GfiKfStSiZU3E21zg7JkJ4wfUDtXNNlVyQQPcV+kniDwzo/jDT2tdUsYNQtXH3JFDfiD/hXnzfst/Dz7R566IVOc7POfb+WaK2Sz5+ejLQvE8M1ZVeehJcnZnxr4K8G6l8QvEFvpGlxtI8pAlmVcpCmcMWPTIHbvX6FeFvD9t4T8O2Wl2wAgtYhGD64HWmeHfB+i+DbH7NpGn2+nwdWESAZ+p7mvG/j5+0Na+GbO50DQJlutZlQxyTRnclqD1JI/i9BXo4fD0sroupVd2evg8JRyCjKpVneTPGv2n/GkXi74kTRWzh7XS4fsoYHIL8lv5/pX1F+z2v8AxaHw7j/n2H86+BJWZllLMzuwYlmOSSeSTX33+z3/AMkh8Pf9e4rz8rrOtjKlV9UeTkOIeKzGtWl9pXPA/wBqbQdR174qBdNs5b17bTFmljhG5gm48gd68BDDzGQ5WRTh0IwVPoQeR+Vfa821f2nsPja2gqBk9f3h4rrfFnwX8G+NpvO1LRbeS4PWeNfLc/iMZ/GrxGVvE1alWnOzvsPFZFLHValWlK0uZn59swRSzHao7tXu37LnwtvNe8Tw+Kry3eHS7Di181SDNIRjcAewHevd9J/Zr+H+jXS3KaGszqcj7Q5cDHfBrvNQ1DT/AArpMtxcywWNlbJuZnIRFAH+FVhMo9jNVsRK9jfL+H5Yaqq+Kkvd7GR8TvF8HgnwTq2qXDBWjgYRqTgs5GFH54r4h+D/AI1bwZ8StM1a4YLBNMYLpumFc8E/Qmuj+PPxnk+KGqR2dgHh0C0J8sH71xJ/fP8As+leUMoYENyCDn1rhzLH+0xClT2ieRnGa+1xUJUtoO6P0m1zSrTxb4fvLCfE1pewGJu42sOv618A/Eb4dan8M/EEmnajEfsxJNreBMxyrng57EdMGvcP2ff2hoLG1t/DPie48ooQlnqLn5CvQI5PQ+9fRuqaLpHi7TmgvrW31GymXlXAZWHqP8a9mrSo5tRU4u0j6PEYehxBh4VabSmu/Q/Norlegx/ex8v51u+B/BOqfEDxBDpek2xlcsPOmI/dwLnlmPTp2719gXP7Kvw/uLtrhdNmiBbPlRzNs/KvRPC/gvRvBemiz0XT4dPt152xpjJ9SepNeZRyOfPeo9Dx8LwvV9p+/kkvL/gnxx8U/wBnPW/h5B9vsWfW9JVMyvHFmaFu5Zcfd9+3pXkmA3J24bgtjH9K+4/jp8aLH4daLJaQOt1rd0jLBbg52ZGNzD0HXnrXxDJI80zyu+6aZjI5xwWJyePSuDMsPh8PVUaPzPHzrC4XCVlTw7v3X/BPsz9lXxsniH4dxaZIxN5pTfZ5Fb723qrfQjiue/aq+E134gt7fxVpUJubuzjMd3BGPmePqGH054r56+GnxCv/AIZ+KINXs/3sH+rurfP+tjJyfxHavunwX460f4iaHFf6VcxzRSLh4Sw3xH0I7V7mDqQzDC/V6j95H1GX1qOb4D6nVdpLT/Jn51rJuYqPvA4KnqD6EUrsIxk8A8KcdT6ev6V99+JvgL4H8V3DXN9okK3DHLTQkxlj6nb1pnhn4A+B/Cl4Lux0SF7lDlZZyZCv0zXB/Ydbm+JWPK/1WxKn8St8zzX9lP4WXWhQ3HirVbdobi6Xy7SGRcOsXXcR7ntXa/tLeMk8K/DO+t1k23mpr9ljAPOD94/lXc+KfGGk+B9Hm1HVrqO1t41zyeWx0UDufavhn4ufFC6+Knig6hIpg0+HMdnbZyFT+8enJr0sVUp5dhHh6bvI9vG1aOTYF4Wi7y/V7s4demOgr64/Ys/5E3Xf+v8AJ/8AHRXyTtr6W/Y58X2lkNZ8P3Eqx3U0ouocnAdcAED34rwcqko4yPN1PkuH5qnmEOZ9Gb/7aA/4pXQz/wBPp/8AQa+S45pLWaK4hOJYHWVMf3lO4fyr6y/bMkD+FND6bhe8j/gJr5N9arN7rFuS7GnEEuXMJNPsfor8OvFlv408G6ZqtvIHWeJdwDZwwGCPzr5Z/aY+El34a8TXHiawt2l0a+O+4KKT9nk7lvYnvWV+z/8AGr/hWOptpup8+H7xwS3/AD7OTjdj09a+z7K60/xJpayQvFe2VwnBGHRlPb8a96Hss1wyg37yPq6bo59go05StP8AJrr8z81VO/BX5wf7vNWtL0y81zUrfTtOt5LvULhtscEYO7rjJ9B719xaz+zb8Ptau3uZNDjhkc5dYHaMN+ANdH4Q+FvhjwDDIdG0qG0kYfPNndI31ZjXmU8jrc3vyVvQ8anwvXjO1Sa5Txb9nbwXJ8PvirrmizTedPHptvLK2MAMxJwPXFdv+1Z/ySO8x/z3i/8AQq5LTfHum6T+1Bq8RuYXt9RtIbZJVYFVmTPyk+pzXVftUSB/hLeAH/lvEf8Ax4V6UXCGCrU4O9rntR9jTy6vSp68tz4mYZwfaik3UV8NY/LBfryKQqG6jI6ntz6+xpaKeqd07DTa2djuPDfxt8b+FLdLex1yR7dBhY7pfNwPQE1u/wDDT3xC/wCgnbH/ALdR/jXlVFdkcXXire0Z3xzDFwVoVWjpPG3xD1z4iT2s2uXEc8tspWJo49mMnJ71zW0egP1paK55ylUd5bnHUqSrS56ruze8JePvEPgSXfoeqS2iZy0DfPEx91Jr1Ow/a+8Y2se2403TLs4x5hZk/TmvDqK6KeLr0VaEjto5hi8OuWjUsj13xB+1R441yF4IJLPSEYYLWqbm/M15TqOoXer3sl5e3U15dyHLTzuWY/59qgoqauIq1v4krmNbF4jEu9eXN6/1YONxJyfxpGG5SD367ePx+tLRXP1ujj1Tumdafix4ql8M3Hh+41RrrS5k2FJ13OF9A3pXJL8oAHT3ooqp1J1NZu9jepWqVGpTd2hGUMu08rjGPauu0f4reKdD0GfRbfVGk0uaJoTBcLv2qwwQp7cGuSoohOdN+47X3FTq1KSahK1xFG1QBQyh8bhuHv8A54paKnbRMyv7ybR3fg/44+MvA8KQWOqG6tF6W96DIo9gc5Arux+2F4t8kKdI0xpMY372/lXhWaM1208biKatGZ6dPNMXRXLCo0vvPQfF3x98beMYWt7nU/sNs+Q0NiuzIPYtmvPMbQcFsk5yTk+/NL169PaiuepVqVXepK5yVcRWxDvVlzeo2T/Vuf8AZP8AKvvv9ns/8Wf8PHp/o4r4FkH7p/Xaf5V96/s93C/8Kj8PqOQIAPfrXu5HriJeh9Xwt/vUl5fqfPv7WF7c6b8XLG5s7ma1uI7BGSaBtrj5ietYvh39p/x14fgSKSe21dF6fa0w+Pcg1qftef8AJVLUH/oHp/6E1eJ/TFcmLr1aOLqOlKx5uYYuthcfVdGbXvHuV5+2B4wuIdkOl6bbMesgZm/HHFeXeMPiF4j8eTh9b1WW6iU7ltl+SIf8BrnqK4qmLxFVWnM4K+Y4rEq1So3+H5B/ET/+uiiiuO2tzzdb3EZVdcMoYd89/rXaeCPjF4t+H4WPTNTMtop/49LwGRPoCTlfwrjKK1p1KlF80JG1GtUoS56UmmfQdn+2Zr0UIW48N2c8oHLx3DKD+G01zvif9qrxrr9u8FmtpocL8FrfMkn5npXj3fNHPrXbLMMVJW5z055xjqkeR1X+BJd3U+oXkl1dTyXNzKd0k0zFnY+5qP37+tFFcDbk+aTuzyZScteofzq/oGv6n4V1AX2jX8+m3Xd4WwH/AN4dDVCilFuD5oaMIylTfPF6ns+k/tZ+NtNiWO5isNSwMeZIpjY/lUupftceNb2JktrXTrDIxvG6Qj3HSvFP1+tJ9ea7Vj8Uo29oz01m2NUbe0Zq+I/FWr+L7wXetajNqE6/d8w/Kv0XpWUeetJz60tccpObvPU82c5VXzTd5dw/zxUttdT2d1FdW8rW9zE2+OaIlWVvUVFRSTas1uiF7rUo6NHTeKPiV4j8aaVa6frV8t9DbOHRjHh84xknPNcz14ooqpSlOXNJ3ZrOrOq71Hdh+A+mODXSeDfiN4k8AuP7E1SS3h3bjbSHfEfqD/SubopxnOm7wlYVOrOi+ak7Pue5Wv7YHi+GEJNpmm3EgGPM3MufwrmPGH7RXjXxjbvbS3kel2jghorFcFgeoLHmvNKK65Y7EzVnUZ3TzPGVI8kqrsNVNuOWzuDbsnduH8Weufeur1D4oeKNW8MnQL/VGvdOJU4mTMg2nIAb0rlqK5I1JxT5ZW/U4YValNWhKye/mJtopaKzMgooooAKKKKACiiigAooooAKKKKACiiigAooooAKKKKACiiigAooooAKKKKYCHPUV7l8A/j/AAfD2zbQddEjaV5m6C6UZ8kH+Ej075rw6j610YfESws+eB3YPGVcDUVSi7HqX7SXi7SvG3j601HR7yO+tfsao0kX8LAk4P4GvLaPfv1PGM0VNaq603N9TLFYiWKrSryWsgooorA5gooooAKKKKACiiigAooooAKKKKACiiigAooooAKKKKACiiigAooooAKKKKACiiigAooooAKKKKACiiigAooooAKKKKACiiigAooooAKKKKACiiigAooooAKKKKACiiigAooooAKKKKACiiigAooooAKKKKACiiigAooooAKKKKACiiigAooooAKKKKACiiigAooooAKKKKACiiigAooooAKKKKACiiigAooooAKKKKACiiigAooooAKKKKACiiigAooooAKKKKACiiigAooooAKKKKACiiigAooooAKKKKACiiigAooooAKKKKACiiigAooooAKKKKACiiigAooooAKKKKACiiigAooooAKKKKACiiigAooooAKKKKACiiigAooooAKKKKACiiigAooooAKKKKACiiigAooooAKKKKACiiigAooooAKKKKACiiigAooooAKKKKACiiigAooooAKKKKACiiigAooooAKKKKACiiigAooooA//2Q==;perimeterSpacing=0;clipPath=inset(0% 0% 0% 0% round 20%);" vertex="1" parent="zuQFFj3czzxh_SttVWpp-21">
          <mxGeometry x="28.53" y="50" width="62.93" height="60" as="geometry" />
        </mxCell>
        <mxCell id="zuQFFj3czzxh_SttVWpp-6" value="&lt;font style=&quot;font-size: 11px;&quot;&gt;Tokopedia TWS F9-5 Reviews&lt;/font&gt;" style="text;html=1;align=center;verticalAlign=middle;whiteSpace=wrap;rounded=0;" vertex="1" parent="zuQFFj3czzxh_SttVWpp-21">
          <mxGeometry x="17.5" y="10" width="85" height="30" as="geometry" />
        </mxCell>
        <mxCell id="zuQFFj3czzxh_SttVWpp-11" style="edgeStyle=orthogonalEdgeStyle;rounded=0;orthogonalLoop=1;jettySize=auto;html=1;entryX=0.5;entryY=0;entryDx=0;entryDy=0;strokeColor=#0e8c00;align=center;verticalAlign=middle;fontFamily=Helvetica;fontSize=11;fontColor=default;labelBackgroundColor=default;endArrow=classic;" edge="1" parent="zuQFFj3czzxh_SttVWpp-21" source="zuQFFj3czzxh_SttVWpp-7" target="zuQFFj3czzxh_SttVWpp-10">
          <mxGeometry relative="1" as="geometry" />
        </mxCell>
        <mxCell id="zuQFFj3czzxh_SttVWpp-7" value="&lt;font style=&quot;font-size: 11px;&quot;&gt;Web Scraper&lt;/font&gt;" style="rounded=0;whiteSpace=wrap;html=1;fillColor=#d5e8d4;strokeColor=#82b366;" vertex="1" parent="zuQFFj3czzxh_SttVWpp-21">
          <mxGeometry x="15" y="150" width="90" height="40" as="geometry" />
        </mxCell>
        <mxCell id="zuQFFj3czzxh_SttVWpp-10" value="" style="shape=image;verticalLabelPosition=bottom;labelBackgroundColor=default;verticalAlign=top;aspect=fixed;imageAspect=0;image=data:image/jpeg,/9j/4AAQSkZJRgABAQEBLAEsAAD/2wBDAAMCAgMCAgMDAwMEAwMEBQgFBQQEBQoHBwYIDAoMDAsKCwsNDhIQDQ4RDgsLEBYQERMUFRUVDA8XGBYUGBIUFRT/2wBDAQMEBAUEBQkFBQkUDQsNFBQUFBQUFBQUFBQUFBQUFBQUFBQUFBQUFBQUFBQUFBQUFBQUFBQUFBQUFBQUFBQUFBT/wAARCADqANoDASIAAhEBAxEB/8QAHwAAAQUBAQEBAQEAAAAAAAAAAAECAwQFBgcICQoL/8QAtRAAAgEDAwIEAwUFBAQAAAF9AQIDAAQRBRIhMUEGE1FhByJxFDKBkaEII0KxwRVS0fAkM2JyggkKFhcYGRolJicoKSo0NTY3ODk6Q0RFRkdISUpTVFVWV1hZWmNkZWZnaGlqc3R1dnd4eXqDhIWGh4iJipKTlJWWl5iZmqKjpKWmp6ipqrKztLW2t7i5usLDxMXGx8jJytLT1NXW19jZ2uHi4+Tl5ufo6erx8vP09fb3+Pn6/8QAHwEAAwEBAQEBAQEBAQAAAAAAAAECAwQFBgcICQoL/8QAtREAAgECBAQDBAcFBAQAAQJ3AAECAxEEBSExBhJBUQdhcRMiMoEIFEKRobHBCSMzUvAVYnLRChYkNOEl8RcYGRomJygpKjU2Nzg5OkNERUZHSElKU1RVVldYWVpjZGVmZ2hpanN0dXZ3eHl6goOEhYaHiImKkpOUlZaXmJmaoqOkpaanqKmqsrO0tba3uLm6wsPExcbHyMnK0tPU1dbX2Nna4uPk5ebn6Onq8vP09fb3+Pn6/9oADAMBAAIRAxEAPwD9U6KKKACiiigAooooAKKKKACiikoAWikzS0AFFFFABRRRQAUUUUAFFFFABRRRQAUUUUAFFFFABRRRQAUUUUAJWVrfibSvDdubjVtTs9Ltxz519cJCn5sRXyX+35+1prnwRt9N8H+EH+xeI9Wtnu5tUZA5tLfcUXylIwZHZWGSPl29CSCPy98ReJtW8YanNqWu6pd6zfzHc91f3DXDtk5+8xPFe1hMsniIKpJ2TPAxubwws3SjHma37H7NeJv21Pgt4RaSO8+IOmXUyZ/d6dvvGyO37pWH615d4g/4KhfCbS9y6dZeJNbf+FrewSKM/jLIpH5V+UlFevDJ6EfibZ4U89xEvhSR+jOsf8FZ9PTculfDm7n4+V73VUiH4hI3/nXH3/8AwVe8YyZ+w+BdDtx/083k8v8AJVr4WorpjluFj9n8zjlm2Ml9v8EfZd1/wVQ+KUzfuNC8K2w/69rh/wCc1Z0n/BUD4wMTi08LqP8AZ06Y/wDtavkWjHtWqwOGX2EYvMsW/wDl4z68j/4Kg/F9MbrLwu4/2tOlH/tatSy/4Ko/FCHAuPDvhW5HqsNzH/7WNfF9FDwOGf8Ay7Q1mWLX/Lxn3fpn/BWLxRCyjUfAOj3Q7/ZdQmi/9CRq7TR/+CsmiSlRq3w71K1H8T2Woxz4/BlSvzc9u1GB6VlLLcLL7P4s2jm+Mj9v8EfrN4d/4KbfB7WNgvf7f0MtwWvNO8xFPuYmf+Ver+Ff2uvg94ykWLTfiFognYfLDe3H2SRvoswQn8K/EKggFdpGR6VyTyejL4ZNHZDPq8fjimf0Iabq1prFqlzY3cN5bvystvKsiH6MpIq6Ogr8BvAvxH8T/DPWI9S8La/f6DeIwO+xnKBv9lkJ2OD6MDkV+uH7Fv7Sl1+0Z8Nbm61eBIPEujzrZ6gbcFYZ8pujmQfwhgDlezKa8bF5fPCx507xPoMDmkMZLkatI+iqKQdKWvJPbCiiigAooooAKKKKACiiigApKWkoA/Kz/gqh/wAnAaD/ANi3D/6U3FfGx619k/8ABVD/AJL/AKB/2LcP/pTcV8bV9/gf92h6H5lmX+91PU9u/Zs/ZN8VftKXGpy6Rd2WkaRpxWO41HUNzK0rDIijRQCzBRuJyAARyc4rlvjx8CfEX7PvjZvDfiMQzSPALq1vbNmMN1CSRuXIyCCCpBGQR05zXrf7G37ZSfs12ut6Lq2iXGt+H9RnW8/0GRFnt59oQkBiFZWVV6kYKnrmuJ/aq/aMn/aU+IsGuppraPpVjbfY7C0kcPJt3bjJIR1Ykj7vQAdaiMsV9Zakv3ZpKOE+qJxf7w8VpKOO3SivRPICiiigAooooAKKKKACiiigBf8ADFfo9/wSXUHw38SsjP8Aptl/6Kkr84K/SD/gkv8A8i38Sv8Ar9sv/RUleVmn+6y+X5nt5P8A75H5/kffopaSlr4c/RQooooAKKKKACiiigAooooAKKKKAPmj9p/9ibQ/2lPEVr4gufEWo6FrVrZiwjaGKOa2MQkdxujOG3bnPIfp2r5B8af8Eufiboe+XQNY0PxPCM7YzK9nOfThlKfm4r9N7jxpoNt4kXQJtYsYtcaITppslyi3DRkkBxGTuIyGGR6VsowZVOevSvSo47E4eKinp5o8mvl2FxMnKS17pn4f+LP2S/jB4LZ/7U+Hut7I85uLGAXkQ9TuhZwK8w1HS7vR5jDf2lxYTA4Md1E0RyP94e1f0J7R6VS1LQ9P1qEw6hY219CeDHcwrIp/Bga9GOcz+3D7jy6mQwf8Oo16n8+C/vGwpVz7HNGCOxr9zte/Zm+FHiZmOo/Drw1MzdXTTIo2+u5QDXD6n+wP8CtS3bvAkFsx6NaX11D+gkx+ldcc5pfai/wOGWQ1l8M1+J+NHHv+VHFfrpdf8E2fgpdcx6ZrFr/1x1aU4/763VQb/gmJ8HW5D+JB/wBxQf8AxFaf2xhvP7v+CY/2Fiu6+8/JrilxX6yx/wDBMf4OK3LeIpPZtU/wStKy/wCCbvwStWHmaNql3j/nvq04z/3wVoecYfs/uBZHin1X3n5EAe1I5Ef3iFB6MxxX7M2/7EHwG8O2s1xL4EsDBbo0kk99d3EoCgZLNvkIAAHX2r5A8f8A7ZHwp8C6tPYfCX4OeE7uOFyi67qenxqkpHG6ONV3lTjIJcEg/drSlmP1h2owb+5GVbK/qsebEVEvS7PjbRfDereJJxDpGl3urTMcCOwtnnJP0TNeteEv2L/jR40aP7F4A1O0ikwfO1UJZIB6/vGVvyU10euf8FAPjNqlu0FhrWn+GbM8CDRNKhiUDthnVyPzrzTXv2iPif4mLf2p8QvEl2rf8sv7UljT/vlGA/Suv/apbJL73/kclsHDdyl9y/zPpTwj/wAEuPGd0I5/F3i3Q/DNs3347Xfdyr6jJEaA/wDAjX11+zj8Ifh3+yroes2dj45hv7jVJYpby41S+to1DRqVUIq42DBPDE/Wvx5vtXv9Scve311du3Vrmd5CfrkmqZjRjkqhOMZ2iuStg6+Ijy1aunZI7KOPw+FlzUaOvds/es/GfwDHw3jfw4D33atb/wDxdPh+MPgS4bEXjXw9KfRNVgP/ALPX4I+Wv91P++RR5aHqif8AfIri/sWP87+47/8AWCf/AD7X3n9AVj400DVGAs9c066J6CC8jf8AkxrX8wEAq24Hpt5r+edY1UghVU+oGK1tL8Wa5oTBtN1rUtPYdDaXskWP++WFRLJe1T8P+CXHiBfap/j/AMA/oFVgVBzT6/Dfw7+1b8X/AAuyCw+I/iDEeNsd3eG6Tjttl3CvWvCf/BTD4x6CyLqU+jeJYlxuW9sBE5H+/CVAP4GuWeUV4/C0zthnmHl8Sa/E/W6ivkz9mP8Ab88O/HLXLbwvrmmt4V8U3HFshm820vGAyUjcgMrkBiEYcgHDN0r6yU7lB9q8mrRnQlyVFZnuUa9PEQ56TuhaKKKxNwpKWkoA/K3/AIKnMY/2gPDzD5WXw5CVZeCp+03HINeJfD79rb4tfDTyo9E8c6nJaxdLPUXF7Bj02S7io/3SK9s/4Kof8l+0D/sW4f8A0puK+Nq+7wdOFTCwU1fQ/OMdWnSxlRwk1qfc3gn/AIKr+LdN8mLxV4P0rWkHDT6bPJZyEeu1g6k/TAr3Dwn/AMFQvhbrSRJrGn694dmJw7S2i3MS/wDAomLf+O1+cXwp+CPjb416pdWHg3QZ9amtkEly8ckcUUSnpvkkYKGPQL1OM46msXx14A1/4Y+KLnQPFOkzaNq9tjzLe4A5U4wwYEqykchgTnkVhPL8HUk4rR+T/Q6KeZ46nBTese7X6n7I+Hf2zvgr4mZFs/iJo8TN/Dfu9o30xKq16LpPxN8I68qnTPFOi6ju6fZNQhk/RWNfgT0GOv1pNq5zsXPriuaWS0/szZ1Qz+ovjgmf0MR3CTKGSRZFPQqQQad5mPXH0r+fG11a9sf+Pe9ubf8A64zsn8jWjH448SRDEfiHV0H+zqE4/k1YvJX0qfh/wTePEEetP8f+Afv6JPY/kaiuL2G1UtPNHEvXdI4Ufqa/ASbxr4iuFxLr2qyj0e+nP/s1Ztxf3N5n7RcTz56+dKz/AMzQslfWp+H/AAQlxBHpT/H/AIB+137R/izSNS+A3xPsbDWLK6v4vDV/JJb21yjyonksCxUNkDnGfevxKzuGeuRX0H+yTGv9g/HcBVGfh3qH3Vx/HHXz5knntXp4HDrDc9NO+q/I8jMsS8YqdW1tH+YYGc45ooor1TxAooooAKKKKAFpKKKAPTfgn+zt43+P2oaha+EdNiuI9PRXu7q7nEEEW/OxSxBO5sNjAPAJOOK4/wAb+Cta+HvizUvDniGyfTtZ0+YwXFu5UlTgHIK8FSCCGHUc17B+yv8Atcav+zFPrccGi2/iDSdW8t5rSW4Nu8cyBgrpIFbjaeQVPbpxnzX4xfFLVPjT8Sdb8ZawkFve6pIpMFuMxxKirHGg9QEUDPfFckZV/bNSS5Onc75xw/1eLi37S+vYv/s7O0fx++G7IxUjxHp+Cpx/y8pX7tivwj/Z7/5L58Nxjr4j0/3P/HxHX7uLXz+c/wASHzPqMg/hT9ULRRRXzp9SFJS0UAflZ/wVQ/5L/wCH/wDsW4f/AEpuK+NK/dD4tfs5/D343tHL4w8N2+p3kcXkRX6ForqNMkhVlQhtoLE4ORkn1r5T+IP/AASm0S982fwV4yvdKcjKWesQC6jz6eYm1gPqrH619Vg8yoU6Uac7po+MzDKsRVrSq07NP7zzf/gnz+1J4G+DOheIvC/jO6Ohpe3o1G21T7O8kcmIlRoXKKSCNocHGPmYZHAPmf7dPx68OfHr4tWN/wCFlebSNL08WC6lJGUa7bzWkLBSAQi7iFzyTvq340/4J0/Gjwi0r2ej2Pii3TJMujXibiP+ucpRs+wBrxDxX8JvG/gmRk8ReEtc0YjgtfafKin/AIFtwR7120qeGlXeJpzu35nn1qmMhh1hakLRXkcnRS7gzFQyl+4zz+VG0+n616x4dmtxKKXn0pKBBRRxS/pQB9kf8EvdLs9d+L3jXTtRtIb+wuvDEkM9rdRh4pY2uYQyspBBBHBBr7B8a/8ABP34LeNGlkTw1J4eu2JzPod09vjPcR5aP/x2vhL9hvxRqXgW6+MHiHR5Ui1TS/A15eWryIHVZUliZcqcBhlefrXsXw7/AOCrWoW6xQeOPBUN4owGv9CnMTD38mXIJ9g4+lfNYujiZ4iVTDva2zPsMDWwlPDQp4lb33Rs+K/+CTthN5knhn4gXVuOdkGr2KSj2y8bIf8Ax2vJPEf/AAS++LWklm0698O65GOghvZYH/J48f8Aj3419n+Cf+CgXwV8ZJEknieTw9dSYHka5ayW+CfVwGj/APHsV7d4b+IPhnxlCsug+IdL1qM87tPvYp//AEFjXF9ex1DSf4o7v7Py7Ea0/wAGfkFrH7CPxz0fIfwJcXSjnfY3ltNn6ASZ/SuTvP2W/i9YE+d8NfFHHdNOeT/0AGv3IDBuo4HfinjH+zVrOK3WK/EzeQ4d7SZ+EL/s/wDxOiOH+HfisH/sC3J/9kp8H7PPxQum2xfDrxW5/wCwNcD+aV+7nHpRgVf9s1P5fxI/sCl/Oz8PLD9kv4yakwWH4aeIgT0NxaeSP/H2Fdjon/BPz456zsZvCEWmxv8Ax6hqVvHj/gIdm/Sv2R4PvUbSBFJJ2qP4j0FZyzivsoo0jkWHWspNn5deG/8Agld8Rr/y31nxN4e0eM8MIDNdSAd+Nqj9a9h8H/8ABKfwfYyJJ4m8ZazrWOTDYwx2UbHuCT5jY/EV9XeLvjn8PvAUbt4h8aaHpTJ1iuL+MS8eiBix/KvCPHH/AAUs+EPhdZItHm1TxbdKDtXTbQxxE+8kuzj3Aao+tY/EaQv8l+po8HluF1qW+b/Q9I+HH7Hnwj+F95aX2i+DbOTU7V1lj1DUWe7nSRSCHUyEhWBAIKgYPTFe1L90fSvzl0P/AIKTeL/iV8WvB/h7RPDuneG9E1PWrS1uGnka7unheZVcBjtRSVJ6Amv0aXpXFiqVem17d6vzuejg62HrRawy0XlYWiiiuI9AKKKSgD40/ay/bT8S/s1/GzS9EtdG0/XvDt1pEV5PazO0NwshmlVikoyANqLwUYZz0rb+G/8AwUl+E3jNY4dauL3wZfEAMuqQl7fPoJotyge7Ba+XP+CqH/JftA/7FqH/ANKbivjY9a+soZdQxGHhJqztuj4nE5piMLipwi7xT2Z+/wB4X8ceHvG9kLzw9rmna5akZ87TrqOdefUoTj8a3CiSJggFSOQehr+e/S9Xv9Dvku9OvrnTbuM7kuLOVopAf95SDXs/g39tr41eCdiWnjq/v4Fx+51hEvgR6ZkUv+TCuWpk01rTlf1Ouln1N6VYW9P6R+vPiL4PeBfFu/8AtrwboOrFurXemwyN/wB9Fc153qn7EPwP1gs0/wAO9MhLd7OSa2x+EbgV8X+Gf+CqHxC05UTW/DHh/WQv33gMtpIf/HnUH8K9L0f/AIKyaHMFGrfD3UrT+81jqUU4+oDKlc31PHUvhv8AJ/8ADHYswy6t8dvmj1q+/wCCcPwQvCfL0LUrP/r31a4/9mZqyn/4Jj/BuTOB4hT/AHdVJ/mlZmm/8FSvhTdKPtej+KrJ/Q2UMg/8dlNaqf8ABTX4NMPmk8QRf7+lN/Rqm2Yx094d8rl/KEX/AATI+DcRyU8QTez6qR/JK19P/wCCdHwOsWUy+G769K9rjVrkg/XDrWRN/wAFN/g1EoKt4imP/TPSiP8A0JhWLqf/AAVO+F9qp+xaB4pvj6tbQRL+bTU7ZjL+YfNlcf5Tsvil+zr8Ofg58A/irfeDfC9rod7deGL61muY3kkd4zEWKlnZjjIB+or8fgB1xzX6dr+2Va/tS/Dn4t+FNB8IalYTW/hC+vYZJJknkuDgRiNY0B5y/qenGetfmRLC0MzxOhjkj4aNhh1PoR2x6EV7eWRqRU41viv1Pns3lTqOnKh8NumwzpnHFLDI9vMssLGKVfuyRnaw/EUhpK9o+e1R22gfG74ieF8f2T468Sacq9Fg1WYJ/wB8lsV22n/tpfG7TVUQ/EbVpFXvcrFOf/H0NeJ0vv3rCVClL4or7jojia0Phm182fQsf7f3x4hXA8cl/dtMtD/7SqO4/b3+O10CG8eyRjH/ACy060U/+ia+faKj6rQ/kX3I0+u4n/n5L72ew6n+1/8AGfVgRcfEnXgG4xbTpb/+i1FcFr/xL8X+KmY614r1vVt3UXupTTA/UM2K5zJorWNKnH4YpfIxlXqz+KTfzOo+H/wt8WfFLVbjT/CPh68169hj86aOyi3CJMjBdyQFBPqcnnAOKw9Y0W/0HVLrTNUs7jT9RtJWguLS6jMcsTAgMrKeVIzX0p+xT+1po/7Nc3iWy8QaJeanpWseTL9o01UaaKSMPhSrsoZSGP8AEMEHrk48k/aE+LC/HD4weIvGi6aukx6g8fl2oIdljjjRELnoWIUZx3rCNSq6zg4+4tmdM6dBUIzjO829UQ/s8n/i/nw2I7+JNPPH/Xwlfu6K/Cz9m3TbvUvj/wDD5bO1nu5IfEFjNKsETSmJFuEJdtoOFA5JPpX7prXz+cv95H0Pp8hTVKfqvyFooor54+pCkpaKAPyr/wCCqH/Jf9A/7FuH/wBKbivjavtv/gqx4fvIPi94S1kxN9gvNF+xxzYO0yRTuzJnscSqfpn0r4j69ORX32AaeGhbsfmeZprF1L9z1f4D/sy+N/2iLzUY/CtparaWIH2nUdQlaG3jYg7UyASzEA/dBxgZxmue+Lnwf8T/AAR8YTeGfFlgtlqCIs8bxv5kNxExwJI2AG5chh0BBGD0r6H/AGHf2xPD/wCz1pOu+HPFdjeNpF9dC+gvrGISPHN5YRkdCQWUqqEMORgjBzmvPv2yf2jLP9oz4mW2raVp0+m6Lpdn9jsxdqBPMpcs0jgEgZJwFyRgE55qI1MQ8S4Sj7nc0lSwqwkakZfvOx4Hjbx6cdMUUtJXpHjhRtHpRRTANo9KMe1FFAH2R/wTB1ix0H4teNtR1O7hsNOtfDTzXF1cSBI4kW4hJZ2JAAr9DvFHwp+G3xs0yO71rw7oPiq1mXMd+Io5WK442Tp8wH0Nflb+yT/yAfjx/wBk61Af+PpXkngX4peLvhpefavCviXVPD8uct9guWSN/Z05Vh/vCvn8RgpYivOcJ8rVj6jC4+GFw8KdSHNF3P0t8bf8Ewfhbr++XQL/AFvwtcNkqkM4uoB/wCUFsf8AA68R8Uf8EpPF1mzt4d8baPq0fVU1G2ls39h8vmCuW8Af8FOvil4ZWODxBZ6P4ut1wGkni+y3BA9JIvkz9Y69/wDBv/BVTwJqSoniPwrruhSHGZLMx3kQ9cnKNj/gJrm5czobPmX3/wDBOvmynE7rlf3flofLGuf8E6/jho5YQ+HbHVkXnfYapDk/RZCp/SuJ1D9j/wCNGmMwm+G+vPjjNvEs3/oDGv048P8A7enwP8RRpt8cW+nyMceXqVrPbkfUsmP1rvtJ/aE+F+uLusfiH4Yn9l1aAH8i4NT/AGjjKek6f4Mf9lYCprTqfij8c5P2Zfi3Dw/w18WD/uETH/2WpLf9l/4u3LAJ8M/FZ920uVB/48or9poPid4PnUGPxXoco7FNRhP8mqO5+K3gmxUm48YaDbj/AKa6nAv82o/tav8A8+/zD+xMN/z8/I/HrS/2KvjfqzKIPh1qsQY8G7eCAfjvkFd54f8A+Cavxo1iRftlnouhofvPfamrlfwhD/zr9Ita/ag+Enh3P234jeGYyBysepRSt/3yhJNedeJP+CiHwQ8PqyweJbrW5VH+r0vTpnz/AMCZVX9aazDG1NIU/wAGH9mZfT1qVPxR89eEf+CTt7KUfxR8QYIVz81vo+nlyR1wJJWH57DXvPgf/gnP8G/CJjlvtLvvFV0v8es3bMmfXy49iY9iDXkvjL/gq9o9uJI/CfgS9vWPCXGs3aQKD6+XGHJ/76FfPHxD/wCChvxk8brNFa6xa+ErJ+DDodrsfH/XaTc4PupFP2OY1/jfKvkvyE62VYb4I8z9G/zP1Qs4fAfwls7LTbSPQPCNvdSpbW1rEsNoJ5GIVVVRt3Ekj1JrtV+6K/DH4L+INT8TftHfDrUNY1G71a+k8SaeWur6dp5Dm5TqzEmv3OWvMxuFeFlFSlds9fL8YsXGTjHlSFooorzT1gooooA8y+PnwL8N/tA+Bbjw14hjeNg3nWWoQgedZzcgSIT1GDhlPDKcHtj8xPiZ/wAE+vi94Bvpzp+iDxlpinMd5o0gLsvbdAxEin1A3fU1+w+B6UbR0xxXoYbHVcLpHVdjy8Xl1DGPmno+6PwC8RfD3xR4MlMeu+HNX0WRev8AaFjLB0/31Fc8pVsBHVu+FKn+RzX9DckMc0bJIiujcFWGQfwriPEnwN+Hfi7edZ8DeHtSZs5kuNMhZ/8AvrbmvXjnS+3A8OeQfyVPvR+DuPb8qTj3/Kv2d1j9hH4GayGMngG0tXb+Kxubi3I/BJAv6Vxt9/wTN+DN8xaGHX9Pz0FvqrMB/wB9q1dMc4w73TX9epxyyLEr4Wn/AF6H5KUV+pd5/wAErfhjMSbfxD4qt+e9zbv/ADhrPb/glL4ELHHjHxKB7rbH/wBp1t/auF7v7jD+xcZ2X3n5iUuDX6dJ/wAEpfAO7L+MvEzD0H2Yf+0q1LH/AIJZ/CyHm51/xXc+32qBB+kNH9q4bu/uGslxfZfefGv7JS40D48H/qnWof8AoaV89ehr9ebP9hfwZ8NvAHxCtfA41I674h8OXejLJqN75ofzEyoxtUAlwvP1r8jbuznsLue1u4JLa6t3aKa3kG143X7yFeoYHP5Vpg8RDETqSh5fkZY7C1MLTpwn5/mQdTk9aMd8c0vPfk+1JXpnjC5PSkZVbGUU/UUUUAN8pP7if98igRIvRIx/wAU6igd2C/L935fpxR160UUCPRPg78AfG/x41C+s/Bujf2n9hjEl1NJOsEUIYkKC7kAscEBR/dJwcE1yni7wfrHgLxNqPh/xBYyaZrFhL5Nzay4OxuOQQSCMHIIJB617d+yZ+11dfswz67C+gJ4g0rVxHI8P2n7PJHMgZVdXKMNpBKkEdgR/teZ/Gz4sah8bvijrvjHU7WOyuNSkQC1iORDEiqiJuwNxCqOcc1xwlX9vKMork6M9CcMMsPFxl+8vqvIm/Z5/5L58Nv8AsY9P/wDShK/dwd6/ET9kHwPqXjz9ovwLa6dC0v2LUodUupQCRDBA6yu7HoBwFH+06jrX7dr90cYr57OZJ1YryPqchi1Rm2t3+gtFFFfPn04UUUUAFFFFABRRRQAmB6UUtFABRRRQAlFLRQA0qrZBUEHrxXzz8ef2Hvhz8dtUm1m8hufD3iOXmTVNIKoZzjAMsbAo598BvevoikwPStadSdKXNTdmY1aMK0eSoro/NvxP/wAEntYhYv4d8f2N4vaHVLB4D9C8bv8A+g15Zr3/AATZ+NWkyOtrYaPrQXOGsNURMj6TBDX670YHpXpQzTEx3afqjyZ5NhJ7Jr0f+dz8StW/Yx+NmjFhcfDnV5CP4rQxXA/8hu1cze/s8fFLTTi5+HPiqL3Ojzkfolfu3tHpRXTHOavWKOR5DR+zNn4IP8H/AB5G21vBPiRD76Rc/wDxunw/Bnx/ctti8DeJZT/saPck/wDoFfvZt9zRt9zV/wBtT/kX3kf2BT/5+P7j8LdP/Zn+LOqYNt8NvFTg9C+lSoP/AB5RXV6N+wz8cdcZfJ8A3tsrfx31zb24H13SAj8q/afaOmKNoHQYrN5xW6RS+80jkNBfFJv7j8nPDf8AwTD+LurMDqNz4d0GM/e+0Xzzv09IkIP516z4S/4JO26tG/ib4gzTAEF7bR9PWMdOR5kjMfx21+hdJgelcs8zxMtpW9EdlPJ8JDeN/VnmfwT/AGefBPwB0WWw8JaV9nluNv2q/uG826ucZxvkIGQCSQowoycAV6Yv3RRtHpS15kpSm+aTuz14QjTiowVkFFFFSWFFFFABRRRQAUUUUAFFFFABRRRQAUUUUAFFFFABRRRQAUUUUAFFFFABRRRQAUUUUAFFFFABRRRQAUUUUAFFFFABRRRQAUUUUAFFFFABRRRQAUUUUAFFFFABRRRQAUUUUAFFFFABRRRQAUUUUAFFFFABRRRQAUUUUAFFFFABUJfliCTg/d/pU1fI2j/BPwb8ZP2pPjl/wmOjnWhpkuipaB7qeJYg9lufAjZRyQP1ranTU+Zydklfa/VLy7nPVqShyqKu27dujfZ9j60Vy3fPNJux3/rXyp8QvB8v7IZ0rxx4G1LUo/A6X9vZeIfCt/fTXlqLeeVYhc23mMzRSRu6kgHDDrXrX7R3xGvfh18Lb6bRR53inV5ItF0KAcmW+uW8uIj12ZMh7bYzT9jdx5HdP+tSVWspc6s4nqEMyzIGVww5+ZTnp1/Wnbu2ckcda+Y/2b9Huf2e/iRq3wbv9Rn1HTb+wj8Q6Df3Mm9pn2rHqEOTzkTDzQv92U1k/tgfs6/D3T/g/wDErx1beH/K8WCzm1EajHd3JYTlgS4j83bnk8YxzVqjH2ipuWjtZ27/ADRHt5+yc1HVXum+3yZ9YGTrhqDMF27jtyeAT1/x/CvHPg7+zd8OvALaL4o0Lw6thr4sVP2pbu4k/wBZEof5XkZefpXj/wAddJ8R/Hj4jeKbvwffTW6/CW1juNKMLYju9eLLPJE2PvBYI1iI7NO3vSjSjOVlLRbtjlWnTgpOOr2S+/suh9kr90ZOeKge4VJArOqsxwFJ5P0rl/hj8QLH4pfD3QfFmknNpq1ol0kbNzGxHzxn0KNlT7qa+Pvgz4f+DvxMt7+2+NE9vP8AGZ9QuF1e28UahLaXUT+c3lLaKzqBEECFPKohQ5ubmvp2V2OpX5eXltr3dl+TPurzNvJOKerHaK+fPi54Jg+Gf7HvxE0fTdY1XV7W20HUJbW61W9NzPGjRsyRrKeSq8KuScBRz3rzzwT8Kf2VrrwboM2p33hIalJp9u915vitkfzTGpfcv2gYO7OR2pxoxlFybdr20V/1RM684yUUle19ZW/Rn2H5nzY3Y9s9afuPrXkafs8/CnxZ8OdE8PW+i22peD7aVtQ06K21Cd4i0m4mRZVly4YOT94jnivB/hd+y78Mte+Pfxp8P6j4ZFxpGgy6Qmm2pv7pRbiazMkuGEu47m5y3TtilCnTkpNyat5eaXfzCdWrBxXKnzeb7N/y+R9rA56H8aUVm+HfD9h4V0LT9H0u3+y6bYwJb28O4t5caKFVcsSTgADk54rSrm9DsXmLRRRQMKKKKACiiigAooooAKKKKACiiigAr5E0f42eC/g3+1N8cR4w1xdE/tKTRWs/MtppPO8uyw5BRGHBdR+NfXdM8lMk7Fy3Xjr/AJwPyranNRUlJXTXp1T8zCrTdRxcXZp32v0a8u58pfEbxr/w18um+BfAmn6jceCZr+3vfEPiu9spbW0+zQSrL9mthIqtNJIyKMgbVHP0k8caD4k/aC/aGkt/DniVvC2l/DSMBdSGnxXqzavcxneqpIQreVAVG48q0pxg19V7R6D8qTYvPyj16Voq/L8Ctbbrvv8AhoYvD8+s5XbtfptsvLXXc+QPjZ8Jfih4Q07TPifc/EWbx1qfgOc6tBpY0C2s3ntuBdxiSIhiGh3fKeCVHHAr0L9qjXLTxb+xz451jTH+1WGo+Hjc20iqxMkbhWU8c8givfto9BTTGhXaUUr0244o9u24uS1i/TztoNYdRUlF6SXr87vU8u8d/EeL4RfAG48UyQvczafpEJtrVVLNPcMirDGAo6tIyDgcZJry34T/ALNvxX8D+Dbe2t/jHJod7fSPqepWqeG7O6P26c+ZcEzSEtJ85K5PZRivqRo1bGVBwcjI70u0DtUxrOEXGKWvlf8AMqWHVSScm9F0bX5Hy7+zzaaz8B/iR4u+E2s3769FeRP4r0G9jto7YXIkYi8gVA3lxlZsELkDEhPA4qLxJ+0F8CfHulzad8V9FtvD2tQIY7nQvGejt9qhOORE3lsJM9VMTHIx0r6m2ruB2jPrio5bSGZkMkUblDuUsoO0+oqvbRlPnktfJ21+7qSqMow5IPTzV9Pv6HxZ4Z0vUrH9in41xpbapaeFrhdXl8JWOqbzcxaWYh5Q2vl1QtvKhs4Ug9DWn4J+MX7LVn4M0G31OLwidSh0+3juvO8Nsz+aI1D7ibc5O7OTk19ieWpXBUEemKTyk/uL+VX9YUr8yervo7fozP6rKNuVrRW1V/1RyPwx8Y+EvHHg6zv/AAVcWtz4cUtbW32OAwRJ5Z2mNYyq7QuMYwBxXl/wVV1/ae/aGYqwRrjQtpIIz/oBzzjB69unevf9q4xtGPpR5aZJ2rk9eOtYKpZSS6/5p/odLpuTg2/hf6NfqKMYFLRRWJuFFFFABRRRQAUUUUAFFFFABRRRQAUUUUAFFFFABRRRQAUUUUAFFFFABRRRQAUUUUAFFFFABRRRQAUUUUAFFFFABRRRQB//2Q==;clipPath=inset(0% 0% 0% 0% round 19%);" vertex="1" parent="zuQFFj3czzxh_SttVWpp-21">
          <mxGeometry x="30" y="230" width="60" height="64.4" as="geometry" />
        </mxCell>
        <mxCell id="zuQFFj3czzxh_SttVWpp-22" value="" style="group" vertex="1" connectable="0" parent="1">
          <mxGeometry x="200" y="40" width="200" height="480" as="geometry" />
        </mxCell>
        <mxCell id="zuQFFj3czzxh_SttVWpp-12" value="" style="rounded=0;whiteSpace=wrap;html=1;fillColor=#fad7ac;strokeColor=#b46504;" vertex="1" parent="zuQFFj3czzxh_SttVWpp-22">
          <mxGeometry width="200" height="479.99999999999994" as="geometry" />
        </mxCell>
        <mxCell id="zuQFFj3czzxh_SttVWpp-24" style="edgeStyle=orthogonalEdgeStyle;rounded=0;orthogonalLoop=1;jettySize=auto;html=1;entryX=0.5;entryY=0;entryDx=0;entryDy=0;" edge="1" parent="zuQFFj3czzxh_SttVWpp-22" source="zuQFFj3czzxh_SttVWpp-13" target="zuQFFj3czzxh_SttVWpp-14">
          <mxGeometry relative="1" as="geometry" />
        </mxCell>
        <mxCell id="zuQFFj3czzxh_SttVWpp-13" value="Preprocessing" style="rounded=0;whiteSpace=wrap;html=1;" vertex="1" parent="zuQFFj3czzxh_SttVWpp-22">
          <mxGeometry x="21.25" y="23.414634146341463" width="157.5" height="46.829268292682926" as="geometry" />
        </mxCell>
        <mxCell id="zuQFFj3czzxh_SttVWpp-27" style="edgeStyle=orthogonalEdgeStyle;rounded=1;orthogonalLoop=1;jettySize=auto;html=1;entryX=1;entryY=0.5;entryDx=0;entryDy=0;curved=0;" edge="1" parent="zuQFFj3czzxh_SttVWpp-22" source="zuQFFj3czzxh_SttVWpp-14" target="zuQFFj3czzxh_SttVWpp-15">
          <mxGeometry relative="1" as="geometry">
            <Array as="points">
              <mxPoint x="190" y="130" />
              <mxPoint x="190" y="187" />
            </Array>
          </mxGeometry>
        </mxCell>
        <mxCell id="zuQFFj3czzxh_SttVWpp-14" value="To Lowercase and Remove Trailing Whitespaces" style="rounded=0;whiteSpace=wrap;html=1;" vertex="1" parent="zuQFFj3czzxh_SttVWpp-22">
          <mxGeometry x="21.25" y="105.36585365853658" width="157.5" height="46.829268292682926" as="geometry" />
        </mxCell>
        <mxCell id="zuQFFj3czzxh_SttVWpp-28" style="edgeStyle=orthogonalEdgeStyle;rounded=1;orthogonalLoop=1;jettySize=auto;html=1;exitX=0;exitY=0.5;exitDx=0;exitDy=0;entryX=0;entryY=0.5;entryDx=0;entryDy=0;curved=0;" edge="1" parent="zuQFFj3czzxh_SttVWpp-22" source="zuQFFj3czzxh_SttVWpp-15" target="zuQFFj3czzxh_SttVWpp-19">
          <mxGeometry relative="1" as="geometry">
            <Array as="points">
              <mxPoint x="10" y="187" />
              <mxPoint x="10" y="246" />
            </Array>
          </mxGeometry>
        </mxCell>
        <mxCell id="zuQFFj3czzxh_SttVWpp-15" value="&lt;font style=&quot;font-size: 12px;&quot;&gt;Remove punctuation, special character, digit and emoji with regex&lt;br&gt;&lt;/font&gt;" style="rounded=0;whiteSpace=wrap;html=1;" vertex="1" parent="zuQFFj3czzxh_SttVWpp-22">
          <mxGeometry x="21.25" y="163.90243902439025" width="157.5" height="46.829268292682926" as="geometry" />
        </mxCell>
        <mxCell id="zuQFFj3czzxh_SttVWpp-30" style="edgeStyle=orthogonalEdgeStyle;rounded=1;orthogonalLoop=1;jettySize=auto;html=1;exitX=0;exitY=0.5;exitDx=0;exitDy=0;entryX=0;entryY=0.5;entryDx=0;entryDy=0;curved=0;" edge="1" parent="zuQFFj3czzxh_SttVWpp-22" source="zuQFFj3czzxh_SttVWpp-16" target="zuQFFj3czzxh_SttVWpp-18">
          <mxGeometry relative="1" as="geometry">
            <Array as="points">
              <mxPoint x="10" y="304" />
              <mxPoint x="10" y="368" />
            </Array>
          </mxGeometry>
        </mxCell>
        <mxCell id="zuQFFj3czzxh_SttVWpp-16" value="Stemming" style="rounded=0;whiteSpace=wrap;html=1;" vertex="1" parent="zuQFFj3czzxh_SttVWpp-22">
          <mxGeometry x="21.25" y="280.9756097560975" width="157.5" height="46.829268292682926" as="geometry" />
        </mxCell>
        <mxCell id="zuQFFj3czzxh_SttVWpp-31" style="edgeStyle=orthogonalEdgeStyle;rounded=1;orthogonalLoop=1;jettySize=auto;html=1;exitX=1;exitY=0.5;exitDx=0;exitDy=0;entryX=1;entryY=0.5;entryDx=0;entryDy=0;curved=0;" edge="1" parent="zuQFFj3czzxh_SttVWpp-22" source="zuQFFj3czzxh_SttVWpp-18" target="zuQFFj3czzxh_SttVWpp-20">
          <mxGeometry relative="1" as="geometry">
            <Array as="points">
              <mxPoint x="190" y="368" />
              <mxPoint x="190" y="433" />
            </Array>
          </mxGeometry>
        </mxCell>
        <mxCell id="zuQFFj3czzxh_SttVWpp-18" value="Remove stopwords" style="rounded=0;whiteSpace=wrap;html=1;" vertex="1" parent="zuQFFj3czzxh_SttVWpp-22">
          <mxGeometry x="21.25" y="344.6634146341463" width="157.5" height="46.829268292682926" as="geometry" />
        </mxCell>
        <mxCell id="zuQFFj3czzxh_SttVWpp-29" style="edgeStyle=orthogonalEdgeStyle;rounded=1;orthogonalLoop=1;jettySize=auto;html=1;exitX=1;exitY=0.5;exitDx=0;exitDy=0;entryX=1;entryY=0.5;entryDx=0;entryDy=0;curved=0;" edge="1" parent="zuQFFj3czzxh_SttVWpp-22" source="zuQFFj3czzxh_SttVWpp-19" target="zuQFFj3czzxh_SttVWpp-16">
          <mxGeometry relative="1" as="geometry">
            <Array as="points">
              <mxPoint x="190" y="246" />
              <mxPoint x="190" y="304" />
            </Array>
          </mxGeometry>
        </mxCell>
        <mxCell id="zuQFFj3czzxh_SttVWpp-19" value="Spell correction" style="rounded=0;whiteSpace=wrap;html=1;" vertex="1" parent="zuQFFj3czzxh_SttVWpp-22">
          <mxGeometry x="21.25" y="222.4390243902439" width="157.5" height="46.829268292682926" as="geometry" />
        </mxCell>
        <mxCell id="zuQFFj3czzxh_SttVWpp-20" value="Remove words that only contains 1 letter" style="rounded=0;whiteSpace=wrap;html=1;" vertex="1" parent="zuQFFj3czzxh_SttVWpp-22">
          <mxGeometry x="21.25" y="409.7560975609756" width="157.5" height="46.829268292682926" as="geometry" />
        </mxCell>
        <mxCell id="zuQFFj3czzxh_SttVWpp-23" style="edgeStyle=orthogonalEdgeStyle;rounded=1;orthogonalLoop=1;jettySize=auto;html=1;entryX=0;entryY=0.5;entryDx=0;entryDy=0;curved=0;" edge="1" parent="1" source="zuQFFj3czzxh_SttVWpp-2" target="zuQFFj3czzxh_SttVWpp-13">
          <mxGeometry relative="1" as="geometry">
            <Array as="points">
              <mxPoint x="100" y="460" />
              <mxPoint x="180" y="460" />
              <mxPoint x="180" y="87" />
            </Array>
          </mxGeometry>
        </mxCell>
        <mxCell id="zuQFFj3czzxh_SttVWpp-52" value="" style="group;fillColor=default;" vertex="1" connectable="0" parent="1">
          <mxGeometry x="440" y="140" width="400" height="280" as="geometry" />
        </mxCell>
        <mxCell id="zuQFFj3czzxh_SttVWpp-32" value="" style="rounded=0;whiteSpace=wrap;html=1;" vertex="1" parent="zuQFFj3czzxh_SttVWpp-52">
          <mxGeometry width="400" height="280" as="geometry" />
        </mxCell>
        <mxCell id="zuQFFj3czzxh_SttVWpp-33" value="Data Annotation" style="text;html=1;align=center;verticalAlign=middle;whiteSpace=wrap;rounded=0;" vertex="1" parent="zuQFFj3czzxh_SttVWpp-52">
          <mxGeometry x="155" width="90" height="30" as="geometry" />
        </mxCell>
        <mxCell id="zuQFFj3czzxh_SttVWpp-34" value="" style="rounded=0;whiteSpace=wrap;html=1;fillColor=#b1ddf0;strokeColor=#10739e;" vertex="1" parent="zuQFFj3czzxh_SttVWpp-52">
          <mxGeometry x="20" y="30" width="360" height="230" as="geometry" />
        </mxCell>
        <mxCell id="zuQFFj3czzxh_SttVWpp-35" value="Sentiment Analysis" style="rounded=1;whiteSpace=wrap;html=1;fillColor=#1ba1e2;strokeColor=none;fontColor=#ffffff;" vertex="1" parent="zuQFFj3czzxh_SttVWpp-52">
          <mxGeometry x="140" y="40" width="120" height="30" as="geometry" />
        </mxCell>
        <mxCell id="zuQFFj3czzxh_SttVWpp-38" value="" style="ellipse;whiteSpace=wrap;html=1;aspect=fixed;strokeWidth=4;" vertex="1" parent="zuQFFj3czzxh_SttVWpp-52">
          <mxGeometry x="170" y="100" width="60" height="60" as="geometry" />
        </mxCell>
        <mxCell id="zuQFFj3czzxh_SttVWpp-42" value="" style="group" vertex="1" connectable="0" parent="zuQFFj3czzxh_SttVWpp-52">
          <mxGeometry x="290" y="100" width="60" height="60" as="geometry" />
        </mxCell>
        <mxCell id="zuQFFj3czzxh_SttVWpp-40" value="" style="ellipse;whiteSpace=wrap;html=1;aspect=fixed;strokeWidth=4;" vertex="1" parent="zuQFFj3czzxh_SttVWpp-42">
          <mxGeometry width="60" height="60" as="geometry" />
        </mxCell>
        <mxCell id="zuQFFj3czzxh_SttVWpp-41" value="&lt;font style=&quot;font-size: 80px;&quot;&gt;+&lt;br&gt;&lt;/font&gt;" style="text;html=1;align=center;verticalAlign=middle;whiteSpace=wrap;rounded=0;" vertex="1" parent="zuQFFj3czzxh_SttVWpp-42">
          <mxGeometry x="10.3125" y="9.847499999999997" width="39.375" height="40.3125" as="geometry" />
        </mxCell>
        <mxCell id="zuQFFj3czzxh_SttVWpp-43" value="" style="group" vertex="1" connectable="0" parent="zuQFFj3czzxh_SttVWpp-52">
          <mxGeometry x="50" y="100" width="60" height="60" as="geometry" />
        </mxCell>
        <mxCell id="zuQFFj3czzxh_SttVWpp-37" value="" style="ellipse;whiteSpace=wrap;html=1;aspect=fixed;strokeWidth=4;" vertex="1" parent="zuQFFj3czzxh_SttVWpp-43">
          <mxGeometry width="60" height="60" as="geometry" />
        </mxCell>
        <mxCell id="zuQFFj3czzxh_SttVWpp-36" value="&lt;font style=&quot;font-size: 100px;&quot;&gt;-&lt;/font&gt;" style="text;html=1;align=center;verticalAlign=middle;whiteSpace=wrap;rounded=0;" vertex="1" parent="zuQFFj3czzxh_SttVWpp-43">
          <mxGeometry x="11.3125" y="13.847499999999997" width="39.375" height="17.8125" as="geometry" />
        </mxCell>
        <mxCell id="zuQFFj3czzxh_SttVWpp-47" value="&lt;b&gt;&lt;font color=&quot;#ff0000&quot;&gt;Negative&lt;/font&gt;&lt;/b&gt;&lt;div&gt;IF rating &amp;lt; 3&lt;br&gt;&lt;/div&gt;" style="rounded=0;whiteSpace=wrap;html=1;" vertex="1" parent="zuQFFj3czzxh_SttVWpp-52">
          <mxGeometry x="30" y="180" width="100" height="50" as="geometry" />
        </mxCell>
        <mxCell id="zuQFFj3czzxh_SttVWpp-48" value="&lt;b&gt;&lt;font color=&quot;#18abf1&quot;&gt;Neutral&lt;/font&gt;&lt;/b&gt;&lt;div&gt;IF rating = 3&lt;br&gt;&lt;/div&gt;" style="rounded=0;whiteSpace=wrap;html=1;" vertex="1" parent="zuQFFj3czzxh_SttVWpp-52">
          <mxGeometry x="150" y="180" width="100" height="50" as="geometry" />
        </mxCell>
        <mxCell id="zuQFFj3czzxh_SttVWpp-49" value="&lt;b&gt;&lt;font color=&quot;#00d500&quot;&gt;Positive&lt;/font&gt;&lt;/b&gt;&lt;div&gt;IF rating &amp;gt; 3&lt;br&gt;&lt;/div&gt;" style="rounded=0;whiteSpace=wrap;html=1;" vertex="1" parent="zuQFFj3czzxh_SttVWpp-52">
          <mxGeometry x="270" y="180" width="100" height="50" as="geometry" />
        </mxCell>
        <mxCell id="zuQFFj3czzxh_SttVWpp-53" style="edgeStyle=orthogonalEdgeStyle;rounded=0;orthogonalLoop=1;jettySize=auto;html=1;entryX=0;entryY=0.5;entryDx=0;entryDy=0;" edge="1" parent="1" source="zuQFFj3czzxh_SttVWpp-12" target="zuQFFj3czzxh_SttVWpp-32">
          <mxGeometry relative="1" as="geometry" />
        </mxCell>
        <mxCell id="zuQFFj3czzxh_SttVWpp-78" value="" style="group" vertex="1" connectable="0" parent="1">
          <mxGeometry x="880" y="100" width="200" height="360" as="geometry" />
        </mxCell>
        <mxCell id="zuQFFj3czzxh_SttVWpp-54" value="" style="rounded=0;whiteSpace=wrap;html=1;fillColor=#f8cecc;strokeColor=#b85450;" vertex="1" parent="zuQFFj3czzxh_SttVWpp-78">
          <mxGeometry width="200" height="360" as="geometry" />
        </mxCell>
        <mxCell id="zuQFFj3czzxh_SttVWpp-73" style="edgeStyle=orthogonalEdgeStyle;rounded=0;orthogonalLoop=1;jettySize=auto;html=1;exitX=0.5;exitY=1;exitDx=0;exitDy=0;entryX=0.5;entryY=0;entryDx=0;entryDy=0;" edge="1" parent="zuQFFj3czzxh_SttVWpp-78" source="zuQFFj3czzxh_SttVWpp-71" target="zuQFFj3czzxh_SttVWpp-72">
          <mxGeometry relative="1" as="geometry" />
        </mxCell>
        <mxCell id="zuQFFj3czzxh_SttVWpp-71" value="Modelling" style="rounded=0;whiteSpace=wrap;html=1;" vertex="1" parent="zuQFFj3czzxh_SttVWpp-78">
          <mxGeometry x="40" y="30" width="120" height="40" as="geometry" />
        </mxCell>
        <mxCell id="zuQFFj3czzxh_SttVWpp-76" style="edgeStyle=orthogonalEdgeStyle;rounded=1;orthogonalLoop=1;jettySize=auto;html=1;entryX=1;entryY=0.5;entryDx=0;entryDy=0;curved=0;" edge="1" parent="zuQFFj3czzxh_SttVWpp-78" source="zuQFFj3czzxh_SttVWpp-72" target="zuQFFj3czzxh_SttVWpp-74">
          <mxGeometry relative="1" as="geometry">
            <Array as="points">
              <mxPoint x="180" y="130" />
              <mxPoint x="180" y="220" />
            </Array>
          </mxGeometry>
        </mxCell>
        <mxCell id="zuQFFj3czzxh_SttVWpp-72" value="Data Splitting" style="rounded=0;whiteSpace=wrap;html=1;" vertex="1" parent="zuQFFj3czzxh_SttVWpp-78">
          <mxGeometry x="40" y="110" width="120" height="40" as="geometry" />
        </mxCell>
        <mxCell id="zuQFFj3czzxh_SttVWpp-77" style="edgeStyle=orthogonalEdgeStyle;rounded=1;orthogonalLoop=1;jettySize=auto;html=1;exitX=0;exitY=0.5;exitDx=0;exitDy=0;entryX=0;entryY=0.5;entryDx=0;entryDy=0;curved=0;" edge="1" parent="zuQFFj3czzxh_SttVWpp-78" source="zuQFFj3czzxh_SttVWpp-74" target="zuQFFj3czzxh_SttVWpp-75">
          <mxGeometry relative="1" as="geometry" />
        </mxCell>
        <mxCell id="zuQFFj3czzxh_SttVWpp-74" value="&lt;div&gt;Transfer Learning&lt;/div&gt;&lt;div&gt;and&lt;/div&gt;&lt;div&gt;Fine Tuning&lt;/div&gt;&lt;div&gt;&lt;br&gt;&lt;/div&gt;&lt;div&gt;&lt;b&gt;Base Model:&lt;/b&gt;&lt;/div&gt;&lt;div&gt;&lt;b&gt;IndoBERT-base-p1&lt;br&gt;&lt;/b&gt;&lt;/div&gt;" style="rounded=0;whiteSpace=wrap;html=1;" vertex="1" parent="zuQFFj3czzxh_SttVWpp-78">
          <mxGeometry x="40" y="170" width="120" height="100" as="geometry" />
        </mxCell>
        <mxCell id="zuQFFj3czzxh_SttVWpp-75" value="Model Evaluation" style="rounded=0;whiteSpace=wrap;html=1;" vertex="1" parent="zuQFFj3czzxh_SttVWpp-78">
          <mxGeometry x="40" y="290" width="120" height="40" as="geometry" />
        </mxCell>
        <mxCell id="zuQFFj3czzxh_SttVWpp-79" style="edgeStyle=orthogonalEdgeStyle;rounded=0;orthogonalLoop=1;jettySize=auto;html=1;exitX=1;exitY=0.5;exitDx=0;exitDy=0;entryX=0;entryY=0.5;entryDx=0;entryDy=0;" edge="1" parent="1" source="zuQFFj3czzxh_SttVWpp-32" target="zuQFFj3czzxh_SttVWpp-54">
          <mxGeometry relative="1" as="geometry" />
        </mxCell>
      </root>
    </mxGraphModel>
  </diagram>
</mxfile>
